<?xml version="1.0" encoding="UTF-8"?>
<svg xmlns="http://www.w3.org/2000/svg" xmlns:xlink="http://www.w3.org/1999/xlink" viewBox="0 0 2094 973.51">
  <defs>
    <style>
      .cls-1 {
        stroke: #fff;
        stroke-miterlimit: 10;
      }

      .cls-1, .cls-2 {
        fill: none;
      }

      .cls-3 {
        isolation: isolate;
      }

      .cls-4 {
        clip-path: url(#clippath);
      }

      .cls-5 {
        mix-blend-mode: multiply;
      }
    </style>
    <clipPath id="clippath">
      <rect class="cls-2" width="2094" height="973.51"/>
    </clipPath>
  </defs>
  <g class="cls-3">
    <g id="Layer_2" data-name="Layer 2">
      <g id="Layer_1-2" data-name="Layer 1">
        <g class="cls-4">
          <g>
            <g class="cls-5">
              <path class="cls-1" d="m814.52-99.83c-11.52,49.35-26,98-43.33,145.62-7.71,21.17-16.26,42.6-31.14,59.52-38.04,43.23-104.6,44.58-161.41,35.19-52.33-8.65-103.61-23.55-152.43-44.28-48.38-20.54-95.16-47.05-146.99-55.76-51.83-8.7-112.12,5.29-140.04,49.81-16.62,26.49-19.26,60.02-12.77,90.61,6.49,30.59,21.37,58.74,37.89,85.29,18.91,30.4,40.87,61.18,43.71,96.87,2.94,36.95-17.48,74.73-49.99,92.53-46.25,25.31-102.88,9.44-154.75-.03-65.9-12.02-136.58-11.91-196.79,17.46-60.2,29.37-106.74,93.2-100.57,159.9"/>
              <path class="cls-1" d="m802.83-109.81c-11.22,48.24-25.46,95.78-42.58,142.24-7.61,20.65-16.05,41.55-30.55,58.11-37.06,42.34-101.46,44.67-156.7,36.61-13.08-1.91-26.11-4.22-39.05-6.93-37.39-7.82-74.09-18.94-109.52-33.2-47.27-19.02-93.08-43.86-143.72-51.85-50.64-7.99-107.77,6.6-137.26,47.99-11.1,15.57-18.67,32.35-21.88,50.46-2.19,12.34-2.66,25.15-1.38,37.88.58,5.82,1.51,11.65,2.77,17.49,5.07,23.36,15.87,46.24,27.68,67.97,1.17,2.16,2.36,4.31,3.54,6.45,18.48,33.36,37.99,67.47,39.06,104.78s-17.93,72.47-49.6,90.01c-45.06,24.95-100.01,10.66-150.2,2.68-3.96-.63-7.93-1.21-11.91-1.74-60.24-8.06-123.23-4.77-176.98,23.03-57.31,29.63-101.08,92.07-94.15,156.88"/>
              <path class="cls-1" d="m791.14-119.79c-10.92,47.14-24.92,93.55-41.82,138.86-7.51,20.14-15.85,40.49-29.97,56.71-36.08,41.45-98.33,44.76-151.99,38.03-12.71-1.59-25.38-3.57-37.97-5.94-36.38-6.84-72.15-16.91-106.75-30.03-46.16-17.5-90.99-40.66-140.46-47.94-49.45-7.28-103.76,7.85-134.48,46.17-12.39,15.45-22.52,30.69-27.92,48.28-3.69,11.98-5.77,24.72-5.83,37.8-.04,5.98.33,12.05,1.12,18.23,3.2,24.7,13.93,49.68,25.52,73.28,1.15,2.34,2.31,4.68,3.47,7.01,18.05,36.33,35.16,73.62,34.41,112.69-.67,34.84-18.39,70.21-49.21,87.5-43.86,24.6-97.14,11.88-145.65,5.4-3.82-.51-7.66-.98-11.51-1.4-58.17-6.31-118.46-1.54-169.49,26.5-54.41,29.89-95.42,90.94-87.73,153.86"/>
              <path class="cls-1" d="m779.46-129.77c-10.63,46.04-24.39,91.32-41.07,135.47-7.41,19.62-15.65,39.43-29.39,55.3-35.11,40.55-95.2,44.85-147.29,39.45-12.34-1.27-24.64-2.93-36.89-4.96-35.37-5.87-70.21-14.88-103.98-26.86-45.05-15.98-88.91-37.46-137.19-44.03-48.26-6.57-100.07,9.01-131.7,44.35-13.77,15.39-26.37,29.04-33.96,46.1-5.19,11.63-8.87,24.3-10.27,37.71-.66,6.14-.86,12.46-.54,18.98,1.33,26.03,11.99,53.12,23.36,78.6,1.13,2.53,2.26,5.05,3.39,7.57,17.61,39.29,32.39,79.64,29.76,120.6-2.17,33.69-18.85,67.95-48.83,84.98-42.66,24.24-94.27,13.11-141.1,8.11-3.69-.39-7.39-.74-11.11-1.05-56.1-4.56-113.69,1.69-162.01,29.98-51.51,30.15-89.76,89.81-81.31,150.84"/>
              <path class="cls-1" d="m767.77-139.76c-10.33,44.93-23.85,89.1-40.32,132.09-7.32,19.11-15.44,38.37-28.8,53.9-34.13,39.66-92.06,44.93-142.58,40.87-11.97-.96-23.91-2.29-35.8-3.98-34.35-4.9-68.27-12.84-101.21-23.68-43.94-14.46-86.83-34.27-133.92-40.13-47.07-5.86-96.68,10.03-128.92,42.53-15.23,15.35-30.22,27.39-40,43.92-6.69,11.27-11.97,23.87-14.72,37.63-1.28,6.3-2.04,12.86-2.19,19.72-.55,27.37,10.04,56.57,21.19,83.92,1.11,2.71,2.21,5.42,3.32,8.13,17.18,42.25,29.7,85.57,25.11,128.51-3.48,32.5-19.31,65.69-48.44,82.47-41.46,23.88-91.4,14.33-136.55,10.82-3.56-.28-7.13-.51-10.7-.7-54.03-2.82-108.92,4.92-154.52,33.46-48.61,30.41-84.09,88.68-74.89,147.82"/>
              <path class="cls-1" d="m756.09-149.74c-10.03,43.83-23.32,86.87-39.57,128.71-7.22,18.59-15.24,37.31-28.22,52.49-33.15,38.77-88.93,45.02-137.87,42.29-11.6-.64-23.18-1.64-34.72-3-33.34-3.92-66.32-10.81-98.44-20.51-42.83-12.95-84.74-31.07-130.65-36.22-45.87-5.15-93.55,10.92-126.14,40.71-16.77,15.33-34.06,25.73-46.04,41.74-8.19,10.91-15.07,23.45-19.17,37.54-1.9,6.46-3.22,13.26-3.85,20.46-2.42,28.7,8.1,60.01,19.03,89.23,1.08,2.89,2.17,5.79,3.24,8.69,16.75,45.22,27.1,91.42,20.45,136.43-4.62,31.29-19.76,63.43-48.05,79.95-40.27,23.52-88.53,15.56-132,13.53-3.43-.16-6.86-.28-10.3-.35-51.96-1.07-104.15,8.15-147.03,36.94-45.72,30.67-78.43,87.56-68.47,144.81"/>
              <path class="cls-1" d="m744.4-159.72c-9.74,42.73-22.78,84.64-38.81,125.33-7.12,18.08-15.04,36.25-27.64,51.09-32.18,37.87-85.8,45.11-133.17,43.71-11.23-.32-22.45-1-33.63-2.02-32.33-2.95-64.38-8.78-95.67-17.34-41.72-11.43-82.66-27.88-127.38-32.31-44.68-4.44-90.63,11.66-123.36,38.89-18.38,15.29-37.91,24.08-52.08,39.56-9.69,10.56-18.18,23.02-23.62,37.46-2.52,6.62-4.41,13.67-5.5,21.21-4.29,30.04,6.16,63.45,16.87,94.55,1.06,3.08,2.12,6.16,3.17,9.25,16.32,48.18,24.6,97.23,15.8,144.34-5.62,30.07-20.22,61.17-47.66,77.44-39.07,23.17-85.67,16.78-127.45,16.24-3.29-.04-6.59-.04-9.89,0-49.89.68-99.38,11.38-139.54,40.41-42.82,30.93-72.77,86.43-62.05,141.79"/>
              <path class="cls-1" d="m732.71-169.7c-9.44,41.62-22.25,82.42-38.06,121.94-7.03,17.56-14.83,35.2-27.05,49.68-31.2,36.98-82.66,45.2-128.46,45.13-10.86,0-21.71-.36-32.55-1.04-31.32-1.97-62.44-6.74-92.89-14.16-40.61-9.91-80.58-24.68-124.12-28.4-43.49-3.73-92.82,6.86-120.58,37.07-22.45,11.43-41.76,22.42-58.12,37.38-11.19,10.2-21.28,22.6-28.07,37.37-3.14,6.78-5.59,14.07-7.16,21.95-6.16,31.38,4.22,66.9,14.7,99.86,1.04,3.26,2.07,6.54,3.09,9.81,15.88,51.14,22.22,103.01,11.15,152.25-6.48,28.85-20.68,58.91-47.27,74.92-37.87,22.81-82.8,18-122.9,18.95-3.16.08-6.33.19-9.49.35-47.82,2.42-94.61,14.6-132.06,43.89-39.92,31.19-67.11,85.3-55.63,138.77"/>
              <path class="cls-1" d="m721.03-179.68c-9.14,40.52-21.71,80.19-37.31,118.56-6.93,17.05-14.63,34.14-26.47,48.28-30.22,36.09-79.53,45.29-123.75,46.55-10.48.31-20.98.29-31.47-.06-30.3-1-60.5-4.71-90.12-10.99C372.41,14.28,333.41,1.18,291.06-1.83c-42.3-3.02-90.07,7.08-117.8,35.25-24.24,10.81-45.61,20.77-64.16,35.2-12.69,9.84-24.38,22.17-32.51,37.29-3.76,6.94-6.77,14.48-8.81,22.69-8.04,32.71,2.28,70.34,12.54,105.18,1.02,3.45,2.03,6.91,3.02,10.37,15.45,54.11,19.95,108.78,6.5,160.16-7.24,27.65-21.13,56.65-46.88,72.41-36.67,22.45-79.93,19.23-118.35,21.66-3.03.19-6.06.42-9.08.7-45.75,4.17-89.84,17.83-124.57,47.37-37.02,31.45-61.45,84.17-49.21,135.75"/>
              <path class="cls-1" d="m709.34-189.66c-8.85,39.42-21.18,77.96-36.56,115.18-6.83,16.53-14.43,33.08-25.89,46.87-29.25,35.19-76.39,45.38-119.04,47.98-10.11.63-20.25.93-30.38.92-29.29-.02-58.56-2.68-87.35-7.82-38.39-6.87-76.41-18.29-117.58-20.59-41.11-2.31-87.31,7.31-115.02,33.43-26.03,10.19-49.46,19.11-70.2,33.02-14.19,9.49-27.49,21.75-36.96,37.2-4.37,7.1-7.96,14.88-10.46,23.44-9.91,34.05.34,73.79,10.38,110.49,1,3.63,1.98,7.28,2.94,10.93,15.02,57.07,17.82,114.57,1.85,168.07-7.9,26.45-21.59,54.39-46.5,69.89-35.48,22.09-77.06,20.45-113.8,24.37-2.9.31-5.79.66-8.68,1.05-43.68,5.92-85.07,21.06-117.08,50.85-34.12,31.72-55.78,83.04-42.79,132.74"/>
              <path class="cls-1" d="m697.66-199.64c-8.55,38.31-20.64,75.74-35.8,111.8-6.74,16.02-14.22,32.02-25.3,45.47-28.27,34.3-73.26,45.46-114.34,49.4-9.74.94-19.52,1.58-29.3,1.9-28.28.95-56.62-.64-84.58-4.64-37.28-5.35-74.33-15.09-114.31-16.68-39.92-1.6-84.55,7.53-112.24,31.61-27.83,9.58-53.3,17.46-76.23,30.84-15.69,9.13-30.59,21.33-41.41,37.12-4.99,7.26-9.14,15.29-12.12,24.18-11.78,35.38-1.6,77.23,8.21,115.81.97,3.82,1.93,7.65,2.87,11.49,14.58,60.03,15.84,120.39-2.8,175.99-8.48,25.28-22.05,52.13-46.11,67.38-34.28,21.74-74.19,21.68-109.25,27.08-2.76.43-5.52.89-8.28,1.4-41.61,7.66-80.31,24.29-109.59,54.32-31.23,31.98-50.12,81.92-36.37,129.72"/>
              <path class="cls-1" d="m685.97-209.62c-8.25,37.21-20.1,73.51-35.05,108.42-6.64,15.51-14.02,30.96-24.72,44.06-27.3,33.41-70.13,45.55-109.63,50.82-9.37,1.26-18.78,2.22-28.22,2.88-27.27,1.92-54.68,1.39-81.81-1.47-36.17-3.83-72.24-11.9-111.05-12.77-38.72-.89-81.8,7.76-109.46,29.8-29.62,8.96-57.15,15.8-82.27,28.66-17.19,8.77-33.69,20.9-45.86,37.03-5.61,7.41-10.32,15.69-13.77,24.92-13.65,36.72-3.54,80.67,6.05,121.13.95,4,1.88,8.02,2.79,12.05,14.15,62.99,14.01,126.27-7.46,183.9-8.99,24.13-22.5,49.87-45.72,64.86-33.08,21.38-71.32,22.9-104.7,29.79-2.63.54-5.26,1.13-7.87,1.75-39.54,9.41-75.54,27.52-102.11,57.8-28.33,32.24-44.46,80.79-29.95,126.7"/>
              <path class="cls-1" d="m674.29-219.61c-7.96,36.11-19.57,71.28-34.3,105.03-6.54,14.99-13.82,29.9-24.14,42.66-26.32,32.51-66.99,45.64-104.92,52.24-9,1.57-18.05,2.86-27.13,3.86-26.26,2.9-52.74,3.42-79.04,1.7-35.06-2.31-70.16-8.7-107.78-8.86-37.53-.18-79.04,7.98-106.68,27.98-31.42,8.34-61,14.15-88.31,26.49-18.69,8.42-36.79,20.48-50.3,36.95-6.23,7.57-11.51,16.09-15.43,25.67-15.53,38.05-5.48,84.12,3.89,126.44.93,4.19,1.84,8.39,2.72,12.61,13.72,65.96,12.34,132.22-12.11,191.81-9.44,23.01-22.96,47.6-45.33,62.35-31.88,21.02-68.45,24.12-100.15,32.5-2.5.66-4.99,1.36-7.47,2.1-37.47,11.16-70.77,30.75-94.62,61.28-25.43,32.5-38.8,79.66-23.53,123.68"/>
              <path class="cls-1" d="m662.6-229.59c-7.66,35-19.03,69.06-33.55,101.65-6.44,14.48-13.61,28.85-23.55,41.25-25.34,31.62-63.86,45.73-100.21,53.66-8.63,1.89-17.32,3.51-26.05,4.84-25.24,3.87-50.8,5.46-76.27,4.88-33.95-.79-68.08-5.5-104.51-4.95-36.34.53-73.59,13.26-103.9,26.16s-64.85,12.5-94.35,24.31c-20.19,8.06-39.9,20.05-54.75,36.87-6.85,7.73-12.69,16.5-17.08,26.41-17.4,39.39-7.42,87.56,1.72,131.76.91,4.37,1.79,8.76,2.64,13.17,13.29,68.92,10.86,138.27-16.76,199.72-9.85,21.92-23.42,45.34-44.94,59.83-30.68,20.66-65.58,25.35-95.6,35.22-2.37.78-4.72,1.59-7.06,2.45-35.4,12.9-66,33.98-87.13,64.76-22.53,32.76-33.14,78.53-17.11,120.66"/>
              <path class="cls-1" d="m650.91-239.57c-7.36,33.9-18.5,66.83-32.79,98.27-6.35,13.96-13.41,27.79-22.97,39.85-24.37,30.73-60.73,45.82-95.51,55.08-8.26,2.21-16.58,4.15-24.97,5.82-24.23,4.85-48.85,7.49-73.5,8.05-32.84.73-65.99-2.31-101.24-1.05-35.15,1.24-71.33,13.07-101.12,24.34C165.41,3.42,130.13,1.63,98.43,12.91c-21.69,7.7-43,19.63-59.2,36.78-7.47,7.89-13.87,16.9-18.74,27.16-19.27,40.73-9.36,91-.44,137.07.88,4.55,1.74,9.13,2.57,13.73,12.85,71.88,9.56,144.44-21.41,207.63-10.22,20.86-23.88,43.08-44.56,57.32-29.49,20.3-62.71,26.57-91.05,37.93-2.24.9-4.46,1.83-6.66,2.79-33.33,14.65-61.23,37.21-79.64,68.23-19.64,33.02-27.48,77.4-10.69,117.65"/>
              <path class="cls-1" d="m639.23-249.55c-7.07,32.8-17.96,64.6-32.04,94.89-6.25,13.45-13.21,26.73-22.39,38.44-23.39,29.83-57.59,45.9-90.8,56.5-7.88,2.52-15.85,4.8-23.88,6.8-23.22,5.82-46.91,9.52-70.72,11.22-31.73,2.25-63.91.89-97.97,2.86-33.96,1.95-69.05,12.8-98.34,22.52C167.61-4.56,130.54-7.13,96.65,3.63c-23.19,7.35-46.1,19.2-63.65,36.7-8.09,8.05-15.05,17.31-20.39,27.9-21.14,42.06-11.3,94.45-2.6,142.39.86,4.74,1.69,9.5,2.49,14.29,12.42,74.85,8.45,150.76-26.06,215.54-10.57,19.84-24.33,40.82-44.17,54.8-28.29,19.95-59.84,27.8-86.5,40.64-2.1,1.01-4.19,2.06-6.26,3.14-31.26,16.4-56.46,40.43-72.16,71.71-16.74,33.28-21.81,76.27-4.27,114.63"/>
              <path class="cls-1" d="m627.54-259.53c-6.77,31.69-17.43,62.38-31.29,91.5-6.15,12.93-13.01,25.67-21.8,37.03-22.41,28.94-54.46,45.99-86.09,57.92-7.51,2.84-15.12,5.44-22.8,7.79-22.21,6.8-44.97,11.56-67.95,14.4-30.62,3.77-61.83,4.09-94.71,6.77-32.77,2.66-66.74,12.47-95.56,20.7-37.54,10.72-76.39,7.53-112.47,17.77C70.18,1.33,45.67,13.12,26.77,30.95c-8.71,8.21-16.24,17.71-22.05,28.64C-18.29,103-8.52,157.49-.04,207.3c.84,4.92,1.65,9.88,2.42,14.85,11.99,77.81,7.55,157.24-30.71,223.46-10.9,18.85-24.79,38.56-43.78,52.29-27.09,19.59-56.97,29.02-81.95,43.35-1.97,1.13-3.92,2.29-5.85,3.49-29.19,18.14-51.69,43.66-64.67,75.19-13.84,33.54-16.15,75.15,2.15,111.61"/>
              <path class="cls-1" d="m615.86-269.51c-6.47,30.59-16.89,60.15-30.54,88.12-6.06,12.42-12.8,24.61-21.22,35.63-21.44,28.05-51.33,46.08-81.39,59.34-7.14,3.16-14.39,6.08-21.71,8.77-21.19,7.77-43.03,13.59-65.18,17.57-29.51,5.29-59.74,7.28-91.44,10.68-31.57,3.37-64.38,12.07-92.78,18.88-39.61,9.5-80.24,5.88-118.51,15.59C66.9-8.31,40.78,3.41,20.55,21.58,11.22,29.96,3.13,39.7-3.15,50.97c-24.89,44.73-15.19,101.33-6.93,153.02.82,5.11,1.6,10.25,2.34,15.41C3.81,300.17-.89,383.32-43.11,450.77c-11.21,17.91-25.25,36.3-43.39,49.77-25.89,19.23-54.1,30.25-77.4,46.06-1.84,1.25-3.65,2.53-5.45,3.84-27.12,19.89-46.92,46.89-57.18,78.67-10.94,33.8-10.49,74.02,8.58,108.59"/>
              <path class="cls-1" d="m604.17-279.49c-6.18,29.49-16.35,57.92-29.78,84.74-5.96,11.9-12.6,23.55-20.64,34.22-20.46,27.15-48.19,46.17-76.68,60.76-6.77,3.47-13.65,6.73-20.63,9.75-20.18,8.74-41.09,15.62-62.41,20.74-28.4,6.81-57.66,10.48-88.17,14.59-30.38,4.08-61.96,11.62-89.99,17.06-41.66,8.09-84.09,4.22-124.55,13.41C63.62-17.95,35.9-6.3,14.32,12.22,4.37,20.74-4.28,30.74-11.03,42.34c-26.76,46.07-17.13,104.78-9.09,158.34.79,5.29,1.55,10.62,2.26,15.97,11.12,83.74,6.37,170.82-40.02,239.28-11.53,17.01-25.7,34.04-43,47.26-24.7,18.87-51.23,31.47-72.85,48.77-1.71,1.37-3.39,2.76-5.04,4.19-25.05,21.64-42.15,50.12-49.69,82.14-8.05,34.06-4.83,72.89,15,105.57"/>
              <path class="cls-1" d="m592.48-289.48c-5.88,28.38-15.82,55.7-29.03,81.36-5.86,11.39-12.4,22.49-20.05,32.82-19.48,26.26-45.06,46.26-71.97,62.18-6.4,3.79-12.92,7.37-19.55,10.73-19.17,9.72-39.15,17.66-59.64,23.92-27.3,8.33-55.58,13.67-84.9,18.49-29.19,4.79-59.47,11.11-87.21,15.24-43.68,6.49-87.93,2.57-130.59,11.23C60.34-27.59,31.02-16.01,8.09,2.85-2.48,11.53-11.69,21.77-18.92,33.72c-28.63,47.41-19.07,108.22-11.26,163.65.77,5.48,1.51,10.99,2.19,16.53,10.69,86.7,6.08,177.97-44.67,247.19-11.84,16.15-26.16,31.78-42.61,44.74-23.5,18.52-48.36,32.69-68.3,51.48-1.57,1.48-3.12,3-4.64,4.54-22.98,23.38-37.38,53.35-42.21,85.62-5.15,34.32.83,71.76,21.42,102.56"/>
              <path class="cls-1" d="m580.8-299.46c-5.58,27.28-15.28,53.47-28.28,77.98-5.77,10.87-12.19,21.44-19.47,31.41-18.51,25.37-41.93,46.35-67.26,63.6-6.03,4.11-12.19,8.01-18.46,11.71-18.16,10.69-37.21,19.69-56.87,27.09-26.19,9.85-53.49,16.87-81.63,22.4-28,5.5-56.9,10.57-84.43,13.42-45.66,4.72-91.78.91-136.63,9.05C57.06-37.23,26.14-25.72,1.87-6.52-9.32,2.32-19.1,12.8-26.8,25.09c-30.51,48.74-21.01,111.66-13.42,168.97.75,5.66,1.46,11.36,2.11,17.09,10.26,89.66,5.99,185.38-49.32,255.1-12.17,15.34-26.62,29.52-42.23,42.23-22.3,18.16-45.5,33.92-63.75,54.19-1.44,1.6-2.85,3.23-4.23,4.89-20.91,25.13-32.61,56.58-34.72,89.1-2.25,34.58,6.5,70.63,27.84,99.54"/>
              <path class="cls-1" d="m569.11-309.44c-15.01,74.32-63.67,139.66-126.35,182.32-62.68,42.66-138.43,63.75-214.12,68.17-47.57,2.78-95.63-.74-142.67,6.87C38.94-44.47-8.81-23.55-34.68,16.47c-32.38,50.08-22.95,115.11-15.58,174.28,12.11,97.31,11.94,206.26-51.93,280.66-31.82,37.06-76.84,61.86-104.87,101.85-38.87,55.46-35.86,136.68,7.02,189.1"/>
            </g>
            <g class="cls-5">
              <path class="cls-1" d="m652.71,963.53c29.68-41.07,61.82-80.36,96.2-117.59,15.28-16.55,31.45-33.02,51.7-42.88,51.78-25.19,113.7-.73,162.48,29.87,44.93,28.18,86.48,61.73,123.51,99.71,36.69,37.63,69.61,80.15,114.06,108.19,44.45,28.04,105.46,38.41,148.42,8.13,25.56-18.02,40.94-47.93,46.77-78.65,5.82-30.72,2.97-62.44-2.02-93.31-5.71-35.34-14.08-72.22-2.92-106.23,11.56-35.21,44.98-62.19,81.84-66.05,52.44-5.49,98.55,31.02,142.74,59.78,56.15,36.53,121.39,63.73,188.26,59.88,66.88-3.84,134.45-44.75,154.51-108.66"/>
              <path class="cls-1" d="m659.64,977.25c29.14-40.4,60.86-78.92,94.87-115.27,15.12-16.16,31.1-32.2,51.01-41.9,39.98-19.48,86.02-9.58,127.29,9.6,11.25,5.22,22.14,11.12,32.46,17.31,44.39,26.63,85.6,58.6,122.47,94.97,36.53,36.04,69.32,77.15,113.31,104.16,24.67,15.15,53.91,25.52,82.71,27.38,25.05,1.6,49.9-3.39,70.68-17.6,3.74-2.56,7.28-5.36,10.61-8.39,20.37-18.52,32.74-45.14,38.16-72.4,1.75-8.79,2.83-17.65,3.41-26.54,1.52-23.13-.27-46.54-2.92-69.41-4.17-36.32-9.74-73.51,2.82-107.46s44.53-59.93,80.51-63.88c51.2-5.62,96.37,28.79,139.59,55.52,3.41,2.11,6.85,4.18,10.32,6.21,52.46,30.69,111.83,51.98,172.15,47.1,64.3-5.2,128.79-45.9,147.42-108.36"/>
              <path class="cls-1" d="m666.56,990.97c28.6-39.73,59.91-77.48,93.55-112.95,14.95-15.76,30.76-31.38,50.32-40.92,39.27-19.16,84.39-10.23,125,7.7,11.08,4.88,21.83,10.42,32.03,16.24,43.86,25.07,84.72,55.46,121.44,90.23,36.38,34.45,69.05,74.13,112.55,100.13,25.61,15.31,55.61,26.13,85.28,28.45,25.76,1.99,51.52-2.71,73.08-17.01,3.89-2.58,7.57-5.42,11.04-8.51,21.22-18.88,33.89-46.31,39.73-74.42,1.87-9.05,3.1-18.17,3.85-27.3,1.94-23.77.86-47.85-.85-71.28-2.64-37.29-5.45-74.76,8.57-108.68,13.3-32.21,44.08-57.66,79.18-61.71,49.95-5.75,94.2,26.55,136.44,51.26,3.33,1.95,6.69,3.86,10.08,5.73,51.22,28.28,108.68,47.16,166.58,41,61.73-6.56,123.13-47.04,140.33-108.05"/>
              <path class="cls-1" d="m673.49,1004.69c28.05-39.06,58.95-76.04,92.22-110.62,14.78-15.37,30.42-30.55,49.63-39.94,38.55-18.83,82.75-10.88,122.7,5.81,10.91,4.53,21.51,9.72,31.6,15.18,43.32,23.52,83.84,52.33,120.41,85.5,36.22,32.87,68.81,71.07,111.79,96.1,26.56,15.47,57.31,26.73,87.86,29.51,26.46,2.38,53.15-2.02,75.47-16.43,4.03-2.6,7.86-5.48,11.47-8.63,22.07-19.23,35.05-47.48,41.3-76.45,2-9.31,3.37-18.7,4.28-28.07,2.37-24.41,2-49.16,1.23-73.16-1.11-38.26-1.21-75.97,14.31-109.91,14.04-30.7,43.63-55.4,77.85-59.54,48.71-5.89,92.02,24.31,133.29,47.01,3.25,1.79,6.53,3.54,9.84,5.25,49.99,25.87,105.53,42.34,161.02,34.9,59.16-7.92,117.47-48.19,133.25-107.75"/>
              <path class="cls-1" d="m680.41,1018.41c27.51-38.39,57.99-74.6,90.9-108.3,14.62-14.98,30.07-29.73,48.93-38.96,37.84-18.51,81.11-11.53,120.41,3.91,10.75,4.19,21.2,9.01,31.17,14.11,42.79,21.96,82.95,49.19,119.37,80.76,36.07,31.28,68.58,67.98,111.04,92.07,27.52,15.62,59.01,27.33,90.44,30.58,27.16,2.78,54.77-1.34,77.86-15.84,4.18-2.62,8.15-5.54,11.9-8.74,22.92-19.59,36.21-48.65,42.88-78.47,2.13-9.56,3.64-19.22,4.71-28.83,2.8-25.05,3.13-50.46,3.31-75.03.42-39.23,2.97-77.14,20.05-111.13,14.68-29.21,43.17-53.14,76.52-57.37,47.47-6.02,89.85,22.07,130.14,42.75,3.18,1.63,6.38,3.22,9.6,4.78,48.75,23.46,102.37,37.52,155.45,28.8,56.59-9.28,111.82-49.33,126.16-107.44"/>
              <path class="cls-1" d="m687.34,1032.13c26.97-37.72,57.04-73.15,89.57-105.98,14.45-14.58,29.73-28.91,48.24-37.97,37.13-18.19,79.47-12.17,118.12,2.02,10.58,3.85,20.89,8.31,30.74,13.05,42.26,20.41,82.07,46.06,118.34,76.02,35.91,29.69,68.38,64.86,110.28,88.05,28.48,15.76,60.72,27.94,93.02,31.65,27.87,3.17,56.4-.66,80.26-15.26,4.33-2.64,8.44-5.6,12.33-8.86,23.78-19.94,37.36-49.82,44.45-80.5,2.26-9.82,3.91-19.74,5.14-29.6,3.22-25.69,4.26-51.77,5.38-76.91,1.96-40.2,7.09-78.29,25.79-112.35,15.22-27.72,42.72-50.88,75.19-55.2,46.23-6.15,87.67,19.84,126.99,38.49,3.1,1.47,6.22,2.9,9.36,4.3,47.52,21.05,99.22,32.7,149.89,22.7,54.01-10.64,106.16-50.48,119.07-107.14"/>
              <path class="cls-1" d="m694.26,1045.85c26.43-37.05,56.08-71.71,88.25-103.65,14.29-14.19,29.39-28.08,47.55-36.99,36.41-17.87,77.83-12.82,115.82.12,10.41,3.51,20.57,7.61,30.31,11.98,41.72,18.85,81.19,42.92,117.3,71.28,35.75,28.1,68.19,61.72,109.53,84.02,29.45,15.88,62.42,28.54,95.59,32.72,28.57,3.56,58.02.02,82.65-14.68,4.47-2.66,8.73-5.66,12.76-8.98,24.63-20.3,38.52-50.99,46.02-82.52,2.39-10.08,4.17-20.26,5.57-30.36,3.65-26.33,5.34-53.08,7.46-78.78,3.4-41.18,11.15-79.44,31.54-113.58,15.69-26.26,42.27-48.62,73.87-53.03,44.98-6.28,85.5,17.6,123.84,34.23,3.02,1.31,6.07,2.59,9.13,3.82,46.28,18.64,96.07,27.88,144.33,16.6,51.44-12,100.5-51.63,111.98-106.83"/>
              <path class="cls-1" d="m701.19,1059.57c25.89-36.38,55.12-70.27,86.92-101.33,14.12-13.8,29.05-27.26,46.85-36.01,35.7-17.55,76.19-13.47,113.53-1.77,10.25,3.17,20.26,6.9,29.88,10.92,41.19,17.3,80.3,39.79,116.27,66.55,35.6,26.51,68.02,58.56,108.77,79.99,30.43,16,64.12,29.15,98.17,33.79,29.27,3.95,59.64.7,85.04-14.09,4.62-2.68,9.02-5.71,13.19-9.09,25.48-20.65,39.68-52.16,47.6-84.55,2.52-10.34,4.44-20.78,6-31.13,4.07-26.97,6.47-54.39,9.54-80.66,4.93-42.16,15.13-80.58,37.28-114.8,16.07-24.83,41.82-46.36,72.54-50.86,43.74-6.42,83.33,15.36,120.69,29.98,2.95,1.15,5.91,2.27,8.89,3.34,45.05,16.23,92.91,23.06,138.76,10.5,48.87-13.36,94.84-52.77,104.9-106.53"/>
              <path class="cls-1" d="m708.11,1073.29c25.35-35.71,54.16-68.83,85.6-99.01,13.96-13.4,28.7-26.44,46.16-35.03,34.98-17.22,74.53-14.05,111.24-3.67,10.07,2.85,19.95,6.2,29.45,9.85,40.65,15.74,79.42,36.65,115.23,61.81,35.44,24.92,67.86,55.37,108.02,75.96,31.42,16.11,65.82,29.75,100.75,34.86,29.98,4.34,61.27,1.39,87.44-13.51,4.76-2.7,9.31-5.77,13.62-9.21,26.33-21.01,40.83-53.33,49.17-86.57,2.65-10.6,4.71-21.3,6.44-31.89,4.5-27.61,7.6-55.7,11.61-82.53,6.46-43.13,19.05-81.74,43.02-116.02,16.37-23.42,41.37-44.09,71.21-48.69,42.5-6.55,81.15,13.13,117.54,25.72,2.87.99,5.75,1.95,8.65,2.86,43.81,13.82,89.76,18.24,133.2,4.41,46.3-14.72,89.18-53.92,97.81-106.22"/>
              <path class="cls-1" d="m715.04,1087.01c24.81-35.05,53.21-67.38,84.27-96.68,13.79-13.01,28.36-25.61,45.47-34.05,34.27-16.9,72.89-14.69,108.94-5.56,9.91,2.51,19.63,5.5,29.02,8.78,40.12,14.19,78.54,33.52,114.2,57.07,35.29,23.33,67.71,52.16,107.26,71.93,32.41,16.2,67.52,30.36,103.33,35.93,30.68,4.73,62.89,2.07,89.83-12.93,4.91-2.73,9.6-5.83,14.05-9.33,27.19-21.36,41.99-54.5,50.74-88.6,2.78-10.86,4.98-21.83,6.87-32.66,4.93-28.24,8.73-57.01,13.69-84.41,7.99-44.11,22.89-82.92,48.76-117.25,16.62-22.05,40.92-41.83,69.88-46.52,41.25-6.68,78.98,10.89,114.39,21.46,2.79.83,5.6,1.63,8.41,2.38,42.58,11.41,86.61,13.42,127.63-1.69,43.72-16.08,83.52-55.06,90.72-105.92"/>
              <path class="cls-1" d="m721.96,1100.73c24.26-34.38,52.25-65.94,82.95-94.36,13.62-12.62,28.02-24.79,44.78-33.07,33.55-16.58,71.26-15.33,106.65-7.46,9.74,2.17,19.32,4.79,28.59,7.72,39.58,12.63,77.66,30.38,113.17,52.33,35.13,21.75,67.58,48.93,106.5,67.9,33.42,16.28,69.22,30.96,105.9,37,31.38,5.12,64.51,2.75,92.23-12.34,5.06-2.75,9.89-5.89,14.48-9.44,28.04-21.72,43.15-55.67,52.32-90.62,2.91-11.12,5.25-22.35,7.3-33.43,5.35-28.88,9.86-58.32,15.77-86.28,9.52-45.08,26.65-84.14,54.5-118.47,16.8-20.71,40.47-39.57,68.55-44.35,40.01-6.81,76.8,8.65,111.24,17.2,2.72.67,5.44,1.31,8.17,1.91,41.34,9,83.46,8.6,122.07-7.79,41.15-17.44,77.87-56.21,83.63-105.61"/>
              <path class="cls-1" d="m728.89,1114.45c23.72-33.71,51.29-64.5,81.63-92.04,13.46-12.22,27.67-23.96,44.08-32.09,32.84-16.26,69.62-15.98,104.35-9.35,9.58,1.83,19,4.09,28.16,6.65,39.05,11.08,76.77,27.25,112.13,47.6,34.97,20.16,67.45,45.69,105.75,63.87,34.43,16.34,70.92,31.56,108.48,38.07,32.09,5.51,66.14,3.43,94.62-11.76,5.2-2.77,10.18-5.95,14.91-9.56,28.89-22.07,44.3-56.84,53.89-92.65,3.04-11.38,5.52-22.87,7.73-34.19,5.78-29.52,11.05-59.62,17.84-88.16,11.15-46.03,30.34-85.42,60.25-119.7,16.93-19.4,40.01-37.31,67.22-42.18,38.77-6.95,74.63,6.41,108.09,12.95,2.64.51,5.28.99,7.94,1.43,40.11,6.59,80.3,3.78,116.51-13.89,38.58-18.8,72.21-57.35,76.55-105.31"/>
              <path class="cls-1" d="m735.81,1128.17c23.18-33.04,50.34-63.06,80.3-89.71,13.29-11.83,27.33-23.14,43.39-31.11,32.12-15.94,67.99-16.63,102.06-11.25,9.41,1.49,18.69,3.39,27.73,5.59,38.52,9.52,75.89,24.11,111.1,42.86,34.82,18.57,67.33,42.42,104.99,59.84,35.44,16.39,72.62,32.17,111.06,39.13,32.79,5.9,67.76,4.12,97.01-11.17,5.35-2.79,10.48-6.01,15.34-9.68,29.74-22.43,45.46-58.01,55.46-94.67,3.17-11.64,5.78-23.39,8.16-34.96,6.2-30.16,12.18-60.93,19.92-90.03,12.68-47.01,33.96-86.77,65.99-120.92,17.02-18.14,39.56-35.05,65.89-40.01,37.53-7.08,72.46,4.18,104.94,8.69,2.56.35,5.13.67,7.7.95,38.87,4.18,77.15-1.04,110.94-19.99,36.01-20.16,66.55-58.5,69.46-105"/>
              <path class="cls-1" d="m742.74,1141.88c22.64-32.37,49.38-61.62,78.98-87.39,13.13-11.44,26.99-22.32,42.7-30.13,31.41-15.61,66.35-17.28,99.77-13.14,9.24,1.14,18.38,2.68,27.3,4.52,37.98,7.97,75.01,20.98,110.06,38.12,34.66,16.98,67.22,39.14,104.24,55.81,36.47,16.42,74.32,32.77,113.64,40.2,33.49,6.29,69.39,4.8,99.41-10.59,5.5-2.81,10.77-6.07,15.77-9.79,30.6-22.78,46.62-59.19,57.04-96.7,3.3-11.9,6.05-23.91,8.59-35.72,6.63-30.8,13.31-62.23,22-91.91,14.21-47.98,37.49-88.2,71.73-122.14,17.07-16.92,39.11-32.78,64.56-37.84,36.28-7.21,70.28,1.94,101.79,4.43,2.48.2,4.97.35,7.46.47,37.64,1.77,74-5.86,105.38-26.09,33.44-21.52,60.89-59.64,62.37-104.7"/>
              <path class="cls-1" d="m749.67,1155.6c22.1-31.7,48.42-60.17,77.65-85.07,12.96-11.04,26.64-21.49,42-29.15,30.69-15.29,64.71-17.93,97.47-15.04,9.08.8,18.06,1.98,26.87,3.46,37.45,6.41,74.13,17.84,109.03,33.38,34.51,15.39,67.11,35.85,103.48,51.78,37.5,16.43,76.02,33.38,116.21,41.27,34.2,6.68,71.01,5.48,101.8-10.01,5.64-2.83,11.06-6.13,16.2-9.91,31.45-23.14,47.77-60.36,58.61-98.73,3.43-12.16,6.32-24.43,9.02-36.49,7.06-31.44,14.45-63.54,24.08-93.78,15.75-48.95,40.94-89.74,77.47-123.37,17.09-15.73,38.66-30.52,63.23-35.67,35.04-7.34,68.11-.3,98.64.17,2.41.04,4.82.04,7.22,0,36.4-.64,70.84-10.68,99.81-32.19,30.86-22.88,55.23-60.79,55.28-104.4"/>
              <path class="cls-1" d="m756.59,1169.32c21.56-31.03,47.47-58.73,76.33-82.74,12.8-10.65,26.3-20.67,41.31-28.17,29.98-14.97,63.08-18.59,95.18-16.93,8.91.46,17.75,1.28,26.44,2.39,36.91,4.86,73.24,14.71,107.99,28.65,34.35,13.8,67.01,32.54,102.73,47.75,38.54,16.42,77.72,33.98,118.79,42.34,34.9,7.07,72.63,6.16,104.2-9.42,5.79-2.85,11.35-6.18,16.63-10.03,32.3-23.49,48.93-61.53,60.18-100.75,3.56-12.42,6.59-24.96,9.46-37.25,7.48-32.08,15.58-64.85,26.15-95.66,17.28-49.92,44.32-91.39,83.22-124.59,17.1-14.59,38.21-28.26,61.9-33.5,33.8-7.48,65.93-2.53,95.49-4.08,2.33-.12,4.66-.28,6.98-.48,35.17-3.06,67.69-15.5,94.25-38.29,28.29-24.23,49.57-61.94,48.2-104.09"/>
              <path class="cls-1" d="m763.52,1183.04c21.02-30.36,46.51-57.29,75-80.42,12.63-10.26,25.96-19.85,40.62-27.19,29.26-14.65,61.44-19.24,92.89-18.83,8.75.12,17.44.57,26.01,1.33,36.38,3.31,72.36,11.57,106.96,23.91,34.19,12.22,66.91,29.21,101.97,43.72,39.59,16.38,79.42,34.59,121.37,43.41,35.6,7.46,74.26,6.84,106.59-8.84,5.93-2.87,11.64-6.24,17.06-10.14,33.15-23.85,50.09-62.7,61.76-102.78,3.69-12.68,6.86-25.48,9.89-38.02,7.91-32.72,16.71-66.16,28.23-97.53,18.81-50.89,47.63-93.18,88.96-125.81,17.09-13.49,37.76-26,60.57-31.33,32.55-7.61,63.76-4.77,92.34-8.34,2.25-.28,4.5-.6,6.75-.96,33.93-5.47,64.54-20.32,88.69-44.39,25.72-25.59,43.92-63.08,41.11-103.79"/>
              <path class="cls-1" d="m770.44,1196.76c20.47-29.69,45.55-55.85,73.68-78.1,12.47-9.86,25.61-19.02,39.92-26.2,28.55-14.32,59.81-19.9,90.59-20.72,8.58-.23,17.12-.13,25.57.26,35.84,1.75,71.48,8.43,105.93,19.17,34.04,10.63,66.81,25.88,101.21,39.69,40.65,16.32,81.12,35.19,123.95,44.48,36.31,7.85,75.88,7.53,108.98-8.25,6.08-2.89,11.93-6.3,17.49-10.26,34.01-24.2,51.24-63.87,63.33-104.8,3.82-12.94,7.13-26,10.32-38.78,8.34-33.36,17.84-67.47,30.31-99.41,20.34-51.87,50.87-95.13,94.7-127.04,17.08-12.44,37.31-23.74,59.24-29.16,31.31-7.74,61.59-7.01,89.19-12.6,2.18-.44,4.35-.92,6.51-1.44,32.7-7.88,61.39-25.14,83.12-50.49,23.15-26.95,38.26-64.23,34.02-103.48"/>
              <path class="cls-1" d="m777.37,1210.48c19.93-29.02,44.59-54.4,72.35-75.77,12.3-9.47,25.27-18.2,39.23-25.22,27.83-14,58.17-20.61,88.3-22.62,8.41-.59,16.81-.83,25.14-.81,35.31.2,70.59,5.3,104.89,14.43,33.88,9.04,66.72,22.53,100.46,35.66,41.71,16.24,82.83,35.8,126.52,45.55,37.01,8.24,77.5,8.21,111.38-7.67,6.23-2.92,12.22-6.36,17.92-10.37,34.86-24.56,52.4-65.04,64.9-106.83,3.94-13.2,7.39-26.52,10.75-39.55,8.76-34,18.97-68.77,32.38-101.28,21.88-52.84,54.05-97.24,100.44-128.26,17.08-11.42,36.85-21.48,57.91-26.99,30.07-7.87,59.41-9.25,86.04-16.86,2.1-.6,4.19-1.24,6.27-1.92,31.46-10.29,58.23-29.96,77.56-56.58,20.57-28.31,32.6-65.37,26.93-103.18"/>
              <path class="cls-1" d="m784.29,1224.2c19.39-28.35,43.64-52.96,71.03-73.45,12.13-9.08,24.93-17.38,38.54-24.24,27.12-13.68,56.53-21.26,86-24.51,8.25-.93,16.5-1.54,24.71-1.87,34.78-1.36,69.71,2.16,103.86,9.7,33.73,7.45,66.63,19.17,99.7,31.63,42.78,16.13,84.53,36.4,129.1,46.62,37.71,8.63,79.13,8.89,113.77-7.09,6.37-2.94,12.51-6.42,18.35-10.49,35.71-24.91,53.56-66.21,66.48-108.85,4.07-13.45,7.66-27.04,11.18-40.31,9.19-34.64,20.1-70.08,34.46-103.16,23.41-53.81,57.18-99.53,106.18-129.49,17.09-10.45,36.4-19.21,56.59-24.82,28.83-8.01,57.24-11.48,82.89-21.11,2.02-.76,4.04-1.56,6.03-2.4,30.23-12.7,55.08-34.78,71.99-62.68,18-29.67,26.94-66.52,19.85-102.87"/>
              <path class="cls-1" d="m791.22,1237.92c18.85-27.68,42.68-51.52,69.7-71.13,11.97-8.68,24.58-16.55,37.85-23.26,26.4-13.36,54.89-21.91,83.71-26.41,8.08-1.27,16.18-2.24,24.28-2.94,34.24-2.91,68.83-.97,102.82,4.96,33.57,5.86,66.53,15.79,98.95,27.6,43.86,15.98,86.23,37,131.68,47.69,38.42,9.02,80.75,9.57,116.17-6.5,6.52-2.96,12.8-6.48,18.78-10.61,36.56-25.26,54.71-67.38,68.05-110.88,4.2-13.71,7.93-27.57,11.61-41.08,9.61-35.28,21.24-71.39,36.54-105.03,24.94-54.78,60.27-102.01,111.93-130.71,17.12-9.51,35.95-16.95,55.26-22.65,27.58-8.14,55.06-13.72,79.73-25.37,1.95-.92,3.88-1.88,5.79-2.87,28.99-15.11,51.93-39.6,66.43-68.78,15.43-31.03,21.28-67.66,12.76-102.57"/>
              <path class="cls-1" d="m798.14,1251.64c42.54-62.76,112.66-104.24,186.95-119.39,74.29-15.14,152.31-5.36,223.83,19.79,44.95,15.81,87.93,37.61,134.26,48.75,46.33,11.14,98.45,10.28,137.77-16.64,49.2-33.69,65.62-97.32,81.67-154.75,26.4-94.44,68.63-194.87,156.28-238.84,43.66-21.9,94.76-27.39,136.07-53.46,57.27-36.15,85.85-112.23,66.54-177.14"/>
            </g>
            <g class="cls-5">
              <path class="cls-1" d="m-504.38-116.74c36.6-35.05,75.3-67.9,115.83-98.32,18.02-13.52,36.89-26.81,58.59-32.85,55.47-15.44,111.97,19.78,154.43,58.68,39.11,35.82,73.93,76.32,103.5,120.35C-42.73-25.26-18.02,22.5,20.65,58.1c38.66,35.6,96.81,56.8,144.52,34.76,28.39-13.11,48.92-39.76,60.18-68.92,11.27-29.17,14.18-60.88,14.84-92.14.76-35.79-.83-73.57,16.29-105.02,17.72-32.55,55.46-53.06,92.41-50.2,52.57,4.06,91.33,48.29,129.62,84.54,48.64,46.06,107.91,84.58,174.38,92.86,66.47,8.28,140.32-19.77,171.57-79.02"/>
              <path class="cls-1" d="m-500.04-102c35.95-34.48,74.1-66.65,114.11-96.27,17.78-13.17,36.4-26.06,57.73-32.01,42.84-11.95,86.34,6.09,123.47,32.4,10.12,7.16,19.77,14.93,28.81,22.88,38.86,34.2,73.63,73.08,103.34,115.5C-43.15-17.47-18.32,28.88,20.08,63.38c21.54,19.35,48.43,34.83,76.41,41.84,24.35,6.1,49.69,5.67,72.7-4.56,4.14-1.84,8.13-3.96,11.95-6.34,23.37-14.55,40.34-38.49,50.59-64.33,3.3-8.33,5.97-16.85,8.14-25.49,5.66-22.48,8.13-45.83,9.64-68.8,2.44-36.47,3.68-74.06,22.16-105.19,18.35-30.91,54.61-50.91,90.71-48.31,51.37,3.71,89.6,45.69,127.29,79.79,2.97,2.69,5.98,5.34,9.03,7.97,46.06,39.65,100.62,71.3,160.83,77.37,64.19,6.48,134.96-21.92,164.55-79.99"/>
              <path class="cls-1" d="m-495.7-87.26c35.29-33.92,72.9-65.4,112.38-94.22,17.55-12.81,35.92-25.31,56.87-31.17,42.08-11.76,84.85,5.16,121.56,30.12,10.02,6.79,19.59,14.19,28.58,21.75,38.62,32.57,73.33,69.83,103.18,110.65C-43.57-9.68-18.59,35.24,19.51,68.66c22.43,19.68,49.99,35.73,78.76,43.36,24.97,6.61,51.17,6.63,74.95-3.55,4.29-1.83,8.42-3.97,12.4-6.38,24.28-14.74,41.69-39.44,52.5-66.04,3.48-8.56,6.33-17.32,8.71-26.16,6.2-23.03,9.48-46.91,12.02-70.27,4.13-37.15,8.13-74.52,28.03-105.35s53.75-48.77,89.01-46.41c50.17,3.35,87.86,43.1,124.96,75.03,2.92,2.52,5.88,5,8.88,7.45,45.28,37.06,98.39,65.99,156.46,70.37,61.9,4.68,129.6-24.06,157.52-80.97"/>
              <path class="cls-1" d="m-491.36-72.51c34.64-33.36,71.7-64.16,110.66-92.18,17.31-12.45,35.43-24.57,56.01-30.33,41.32-11.57,83.35,4.23,119.65,27.84,9.92,6.43,19.41,13.44,28.35,20.63,38.37,30.95,73.02,66.59,103.01,105.81C-43.98-1.89-18.82,41.57,18.94,73.94c23.33,20.01,51.55,36.63,81.1,44.88,25.59,7.12,52.64,7.59,77.19-2.55,4.44-1.83,8.72-3.97,12.84-6.42,25.18-14.94,43.04-40.38,54.41-67.74,3.65-8.79,6.69-17.78,9.27-26.84,6.73-23.58,10.83-47.99,14.4-71.74,5.81-37.83,12.51-74.94,33.9-105.52,19.34-27.67,52.9-46.63,87.31-44.52,48.97,3,86.13,40.51,122.63,70.27,2.88,2.35,5.79,4.66,8.73,6.94,44.5,34.46,96.16,60.68,152.08,63.37,59.62,2.88,124.24-26.21,150.49-81.95"/>
              <path class="cls-1" d="m-487.03-57.77c33.99-32.8,70.5-62.91,108.94-90.13,17.08-12.1,34.94-23.82,55.16-29.49,40.56-11.38,81.86,3.29,117.73,25.56,9.81,6.06,19.23,12.69,28.11,19.5,38.13,29.32,72.72,63.35,102.85,100.96C-44.4,5.9-19.04,47.87,18.38,79.22c24.25,20.32,53.12,37.53,83.44,46.39,26.22,7.63,54.12,8.56,79.44-1.54,4.58-1.82,9.02-3.98,13.28-6.45,26.08-15.13,44.39-41.32,56.33-69.45,3.82-9.02,7.04-18.25,9.83-27.51,7.27-24.13,12.18-49.07,16.78-73.21,7.49-38.51,16.84-75.34,39.76-105.69,19.7-26.08,52.05-44.48,85.61-42.62,47.78,2.64,84.39,37.92,120.29,65.52,2.83,2.18,5.69,4.32,8.58,6.43,43.72,31.87,93.93,55.37,147.71,56.37,57.33,1.08,118.88-28.36,143.47-82.93"/>
              <path class="cls-1" d="m-482.69-43.03c33.33-32.24,69.29-61.67,107.22-88.09,16.85-11.74,34.46-23.07,54.3-28.65,39.8-11.2,80.36,2.36,115.82,23.29,9.71,5.7,19.04,11.94,27.88,18.38,37.88,27.7,72.42,60.1,102.69,96.12C-44.82,13.69-19.23,54.15,17.81,84.51c25.17,20.63,54.68,38.43,85.78,47.91,26.84,8.14,55.59,9.52,81.69-.54,4.73-1.82,9.31-3.98,13.73-6.49,26.98-15.33,45.74-42.27,58.24-71.16,4-9.25,7.4-18.71,10.39-28.19,7.8-24.69,13.53-50.15,19.17-74.68,9.17-39.19,21.1-75.73,45.63-105.86,19.97-24.52,51.2-42.34,83.92-40.73,46.58,2.29,82.66,35.32,117.96,60.76,2.78,2,5.6,3.98,8.44,5.92,42.94,29.27,91.7,50.06,143.34,49.36,55.05-.73,113.52-30.51,136.44-83.91"/>
              <path class="cls-1" d="m-478.35-28.28c32.68-31.68,68.09-60.42,105.5-86.04,16.61-11.38,33.97-22.32,53.44-27.81,39.04-11.01,78.87,1.42,113.9,21.01,9.61,5.33,18.86,11.19,27.65,17.25,37.64,26.07,72.12,56.86,102.52,91.27C-45.24,21.48-19.4,60.4,17.24,89.79c26.1,20.94,56.24,39.33,88.13,49.42,27.46,8.65,57.06,10.49,83.94.47,4.88-1.81,9.61-3.99,14.17-6.53,27.89-15.52,47.09-43.21,60.15-72.87,4.17-9.49,7.76-19.18,10.96-28.86,8.34-25.24,14.82-51.25,21.55-76.15,10.77-39.89,25.29-76.12,51.5-106.03,20.16-23,50.35-40.2,82.22-38.84,45.38,1.93,80.92,32.73,115.63,56.01,2.74,1.83,5.5,3.64,8.29,5.4,42.16,26.68,89.46,44.75,138.97,42.36,52.76-2.53,108.16-32.65,129.41-84.89"/>
              <path class="cls-1" d="m-474.01-13.54c32.03-31.12,66.89-59.18,103.77-83.99,16.38-11.02,33.49-21.57,52.58-26.97,38.27-10.82,77.37.49,111.99,18.73,9.51,4.96,18.68,10.44,27.42,16.13C-140.86-65.2-106.44-36.03-75.89-3.22-45.66,29.27-19.55,66.64,16.67,95.07c27.05,21.23,57.81,40.23,90.47,50.94,28.08,9.16,58.54,11.45,86.19,1.48,5.03-1.81,9.9-3.99,14.61-6.57,28.79-15.72,48.43-44.15,62.07-74.58,4.35-9.72,8.12-19.64,11.52-29.54,8.87-25.79,16.17-52.34,23.93-77.62,12.45-40.58,29.42-76.53,57.37-106.19,20.28-21.52,49.49-38.05,80.52-36.94,44.18,1.58,79.19,30.14,113.3,51.25,2.69,1.66,5.4,3.29,8.14,4.89,41.38,24.09,87.23,39.44,134.59,35.36,50.48-4.33,102.8-34.8,122.39-85.86"/>
              <path class="cls-1" d="m-469.68,1.2c31.37-30.56,65.69-57.93,102.05-81.95,16.14-10.67,33-20.83,51.72-26.13,37.51-10.63,75.84-.37,110.07,16.45,9.4,4.62,18.5,9.7,27.19,15C-141.49-52.6-107.13-25.05-76.44,6.16-46.08,37.06-19.68,72.86,16.1,100.35c28,21.51,59.37,41.13,92.81,52.46,28.7,9.67,60.01,12.41,88.44,2.48,5.17-1.8,10.2-4,15.06-6.6,29.69-15.91,49.78-45.09,63.98-76.29,4.52-9.95,8.48-20.11,12.08-30.21,9.4-26.34,17.52-53.42,26.31-79.09,14.13-41.26,33.48-76.96,63.24-106.36,20.33-20.08,48.64-35.91,78.82-35.05,42.98,1.22,77.46,27.55,110.97,46.5,2.64,1.49,5.31,2.95,7.99,4.38,40.6,21.49,85,34.13,130.22,28.36,48.19-6.13,97.44-36.95,115.36-86.84"/>
              <path class="cls-1" d="m-465.34,15.95c30.72-30,64.49-56.68,100.33-79.9,15.91-10.31,32.51-20.08,50.86-25.29,36.75-10.44,74.35-1.3,108.16,14.18,9.29,4.25,18.32,8.95,26.96,13.87C-142.13-40-107.82-14.06-76.99,15.54-46.49,44.85-19.8,79.05,15.54,105.63c28.96,21.78,60.94,42.04,95.15,53.97,29.32,10.18,61.49,13.38,90.69,3.49,5.32-1.79,10.5-4,15.5-6.64,30.59-16.11,51.13-46.04,65.89-77.99,4.69-10.18,8.83-20.57,12.64-30.89,9.94-26.89,18.87-54.5,28.69-80.56,15.81-41.94,37.47-77.43,69.11-106.53,20.32-18.69,47.79-33.77,77.12-33.15,41.78.87,75.72,24.95,108.64,41.74,2.6,1.32,5.21,2.61,7.84,3.86,39.82,18.9,82.77,28.82,125.85,21.35,45.91-7.93,92.08-39.1,108.34-87.82"/>
              <path class="cls-1" d="m-461,30.69c30.07-29.44,63.29-55.44,98.61-77.85,15.68-9.95,32.03-19.33,50-24.45,35.99-10.26,72.85-2.23,106.24,11.9,9.19,3.89,18.14,8.2,26.73,12.75C-142.76-27.4-108.51-3.08-77.54,24.92-46.91,52.64-19.9,85.23,14.97,110.91c29.93,22.04,62.5,42.94,97.49,55.49,29.95,10.69,62.96,14.34,92.94,4.49,5.47-1.79,10.79-4.01,15.94-6.68,31.5-16.3,52.48-46.98,67.8-79.7,4.87-10.41,9.19-21.04,13.21-31.56,10.47-27.44,20.22-55.59,31.07-82.03,17.5-42.63,41.39-77.96,74.98-106.7,20.26-17.34,46.94-31.62,75.42-31.26,40.58.51,73.99,22.36,106.31,36.98,2.55,1.15,5.12,2.27,7.7,3.35,39.04,16.31,80.54,23.51,121.47,14.35,43.62-9.73,86.73-41.24,101.31-88.8"/>
              <path class="cls-1" d="m-456.66,45.44c29.41-28.87,62.09-54.19,96.89-75.81,15.44-9.6,31.54-18.58,49.15-23.61,35.23-10.07,71.36-3.16,104.33,9.62,9.09,3.52,17.95,7.45,26.5,11.62C-143.39-14.8-109.2,7.9-78.1,34.3-47.33,60.43-19.99,91.4,14.4,116.19c30.91,22.28,64.06,43.84,99.84,57.01,30.57,11.2,64.43,15.31,95.19,5.5,5.62-1.78,11.09-4.02,16.39-6.71,32.4-16.5,53.83-47.92,69.72-81.41,5.04-10.65,9.55-21.5,13.77-32.24,11.01-28,21.62-56.65,33.45-83.5,19.27-43.27,45.25-78.55,80.85-106.87,20.15-16.03,46.09-29.48,73.72-29.36,39.39.16,72.25,19.77,103.98,32.23,2.5.98,5.02,1.93,7.55,2.84,38.26,13.71,78.3,18.2,117.1,7.35,41.34-11.53,81.37-43.39,94.28-89.78"/>
              <path class="cls-1" d="m-452.33,60.18c28.76-28.31,60.88-52.95,95.16-73.76,15.21-9.24,31.05-17.83,48.29-22.77,34.47-9.88,69.87-4.1,102.42,7.34,8.99,3.16,17.77,6.7,26.26,10.5C-144.03-2.2-109.9,18.89-78.65,43.68c30.9,24.54,58.57,53.87,92.48,77.79,31.91,22.51,65.63,44.74,102.18,58.52,31.19,11.72,65.91,16.27,97.44,6.51,5.76-1.78,11.39-4.02,16.83-6.75,33.3-16.69,55.18-48.86,71.63-83.12,5.22-10.88,9.91-21.96,14.33-32.91,11.54-28.55,22.97-57.73,35.83-84.96,20.95-43.95,49.05-79.22,86.71-107.04,20.01-14.77,45.23-27.34,72.02-27.47,38.19-.2,70.52,17.18,101.65,27.47,2.46.81,4.92,1.59,7.4,2.32,37.48,11.12,76.07,12.89,112.73.35,39.05-13.33,76.01-45.54,87.26-90.76"/>
              <path class="cls-1" d="m-447.99,74.92c28.11-27.75,59.68-51.7,93.44-71.71,14.98-8.88,30.57-17.08,47.43-21.93,33.71-9.69,68.38-5.03,100.5,5.07,8.89,2.79,17.59,5.95,26.03,9.37,35.92,14.69,70,34.16,101.38,57.35,31.03,22.95,59.05,50.62,92.46,73.69s67.19,45.64,104.52,60.04c31.81,12.23,67.38,17.23,99.69,7.51,5.91-1.77,11.68-4.03,17.28-6.79,34.2-16.89,56.53-49.81,73.54-84.83,5.39-11.11,10.27-22.43,14.89-33.59,12.08-29.1,24.32-58.81,38.21-86.43,22.63-44.63,52.78-79.99,92.58-107.2,19.84-13.56,44.38-25.19,70.33-25.57,36.99-.55,68.78,14.58,99.32,22.72,2.41.64,4.83,1.25,7.25,1.81,36.7,8.52,73.84,7.58,108.36-6.66,36.77-15.13,70.65-47.69,80.23-91.73"/>
              <path class="cls-1" d="m-443.65,89.67c27.45-27.19,58.48-50.45,91.72-69.67,14.74-8.53,30.08-16.34,46.57-21.09,32.95-9.5,66.89-5.97,98.59,2.79,8.78,2.43,17.41,5.21,25.8,8.25,35.68,13.06,69.69,30.92,101.22,52.5,31.16,21.36,59.54,47.36,92.45,69.59,33.92,22.92,68.76,46.54,106.86,61.55,32.43,12.74,68.86,18.2,101.94,8.52,6.06-1.77,11.98-4.03,17.72-6.82,35.11-17.09,57.88-50.75,75.45-86.54,5.56-11.34,10.62-22.89,15.46-34.26,12.61-29.65,25.67-59.89,40.59-87.9,24.32-45.31,56.46-80.88,98.45-107.37,19.65-12.39,43.53-23.05,68.63-23.68,35.79-.9,67.05,11.99,96.99,17.96,2.36.47,4.73.9,7.1,1.3,35.92,5.93,71.61,2.27,103.98-13.66,34.48-16.93,65.29-49.83,73.2-92.71"/>
              <path class="cls-1" d="m-439.31,104.41c26.8-26.63,57.28-49.21,90-67.62,14.51-8.17,29.6-15.59,45.71-20.25,32.19-9.32,65.4-6.9,96.67.51,8.68,2.06,17.23,4.46,25.57,7.12,35.43,11.44,69.39,27.67,101.06,47.65,31.3,19.77,60.04,44.09,92.43,65.49,34.95,23.1,70.32,47.44,109.21,63.07,33.05,13.25,70.33,19.16,104.19,9.52,6.21-1.76,12.28-4.04,18.16-6.86,36.01-17.28,59.22-51.69,77.37-88.24,5.74-11.57,10.98-23.36,16.02-34.94,13.15-30.2,27.02-60.98,42.98-89.37,26-45.99,60.08-81.9,104.32-107.54,19.45-11.27,42.68-20.91,66.93-21.78,34.59-1.26,65.31,9.4,94.66,13.2,2.32.3,4.63.56,6.96.78,35.14,3.34,69.38-3.04,99.61-20.66,32.2-18.74,59.93-51.98,66.18-93.69"/>
              <path class="cls-1" d="m-434.98,119.15c26.15-26.07,56.08-47.96,88.28-65.57,14.27-7.81,29.11-14.84,44.85-19.41,31.42-9.13,63.91-7.85,94.76-1.77,8.58,1.69,17.05,3.71,25.34,5.99,35.19,9.81,69.09,24.43,100.89,42.81,31.43,18.18,60.54,40.8,92.41,61.4,35.99,23.25,71.88,48.34,111.55,64.59,33.68,13.76,71.8,20.12,106.44,10.53,6.35-1.76,12.57-4.04,18.61-6.9,36.91-17.48,60.57-52.64,79.28-89.95,5.91-11.8,11.34-23.82,16.58-35.61,13.68-30.76,28.37-62.06,45.36-90.84,27.68-46.67,63.65-83.07,110.19-107.71,19.25-10.19,41.83-18.76,65.23-19.89,33.39-1.61,63.58,6.81,92.33,8.45,2.27.13,4.54.22,6.81.27,34.36.74,67.15-8.35,95.24-27.66,29.91-20.54,54.57-54.13,59.15-94.67"/>
              <path class="cls-1" d="m-430.64,133.9c25.49-25.51,54.88-46.72,86.55-63.53,14.04-7.45,28.62-14.09,44-18.57,30.66-8.94,62.42-8.79,92.84-4.04,8.48,1.32,16.87,2.96,25.11,4.87,34.94,8.19,68.78,21.19,100.73,37.96,31.56,16.59,61.05,37.5,92.4,57.3,37.04,23.39,73.45,49.24,113.89,66.1,34.3,14.27,73.28,21.09,108.69,11.54,6.5-1.75,12.87-4.05,19.05-6.94,37.81-17.67,61.92-53.58,81.19-91.66,6.09-12.04,11.7-24.29,17.14-36.29,14.22-31.31,29.72-63.14,47.74-92.31,29.36-47.35,67.19-84.39,116.06-107.88,19.05-9.15,40.97-16.62,63.53-17.99,32.19-1.97,61.84,4.21,90,3.69,2.22-.04,4.44-.12,6.66-.24,33.58-1.85,64.91-13.65,90.86-34.67,27.63-22.34,49.21-56.27,52.13-95.65"/>
              <path class="cls-1" d="m-426.3,148.64c24.84-24.95,53.67-45.47,84.83-61.48,13.81-7.1,28.14-13.34,43.14-17.74,29.9-8.75,60.93-9.79,90.93-6.32,8.38.94,16.68,2.21,24.88,3.74,34.7,6.56,68.48,17.94,100.57,33.11,31.7,15,61.56,34.19,92.38,53.2,38.1,23.5,75.01,50.15,116.23,67.62,34.92,14.78,74.75,22.05,110.94,12.54,6.65-1.75,13.17-4.05,19.49-6.97,38.72-17.87,63.27-54.52,83.11-93.37,6.26-12.27,12.06-24.75,17.71-36.96,14.75-31.86,31.07-64.22,50.12-93.78,31.05-48.03,70.7-85.9,121.93-108.04,18.86-8.15,40.12-14.48,61.83-16.1,31-2.32,60.11,1.62,87.66-1.06,2.17-.21,4.35-.46,6.51-.76,32.8-4.44,62.68-18.96,86.49-41.67,25.34-24.14,43.85-58.42,45.1-96.63"/>
              <path class="cls-1" d="m-421.96,163.38c24.19-24.39,52.47-44.22,83.11-59.43,13.57-6.74,27.65-12.6,42.28-16.9,29.14-8.57,59.44-10.72,89.01-8.6,8.28.57,16.5,1.46,24.65,2.62,34.45,4.93,68.18,14.7,100.41,28.27,31.83,13.41,62.08,30.87,92.36,49.1,39.17,23.58,76.58,51.05,118.58,69.14,35.54,15.29,76.23,23.02,113.18,13.55,6.8-1.74,13.46-4.06,19.94-7.01,39.62-18.06,64.62-55.46,85.02-95.08,6.43-12.5,12.41-25.22,18.27-37.64,15.28-32.41,32.41-65.31,52.5-95.25,32.73-48.71,74.19-87.58,127.8-108.21,18.69-7.19,39.27-12.33,60.13-14.21,29.8-2.68,58.37-.97,85.33-5.82,2.13-.38,4.25-.8,6.37-1.27,32.02-7.04,60.45-24.27,82.12-48.67,23.06-25.94,38.5-60.57,38.07-97.61"/>
              <path class="cls-1" d="m-417.63,178.13c23.53-23.83,51.27-42.98,81.39-57.39,13.34-6.38,27.17-11.85,41.42-16.06,28.38-8.38,57.94-11.65,87.1-10.88,8.18.21,16.32.72,24.41,1.49,34.21,3.31,67.88,11.46,100.24,23.42,31.96,11.82,62.6,27.53,92.35,45,40.26,23.63,78.14,51.95,120.92,70.65,36.16,15.8,77.7,23.98,115.43,14.55,6.95-1.73,13.76-4.06,20.38-7.05,40.52-18.26,65.97-56.41,86.93-96.79,6.61-12.73,12.77-25.68,18.83-38.31,15.82-32.96,33.76-66.39,54.88-96.72,34.41-49.39,77.68-89.47,133.66-108.38,18.55-6.27,38.42-10.19,58.43-12.31,28.6-3.03,56.64-3.56,83-10.57,2.08-.55,4.15-1.15,6.22-1.78,31.24-9.63,58.22-29.58,77.75-55.67,20.77-27.74,33.14-62.72,31.05-98.58"/>
              <path class="cls-1" d="m-413.29,192.87c53.16-54.06,129.61-82.22,205.41-83.71,75.81-1.5,150.78,22.2,216.59,59.84,41.36,23.66,79.7,52.85,123.26,72.17,43.56,19.32,94.98,27.86,138.51,8.48,54.47-24.26,82.09-83.89,108.24-137.48,43-88.13,102.65-179.3,196.79-206.74,46.89-13.67,98.15-9.85,143.48-28.04,62.85-25.22,104.68-94.91,97.39-162.24"/>
            </g>
            <g class="cls-5">
              <path class="cls-1" d="m400.18,973.57c-8.03-64.91,56.04-119.75,120.66-129.83s129.44,10.72,193.47,24.06c64.03,13.34,136.07,17.75,189.55-19.9,68.38-48.12,84.2-149.36,154.54-194.55,54.83-35.23,126.19-24.69,182.37,1.52,31.76,14.82,58.77,39.75,89.12,57.11,137.67,78.75,146.96,239.68,263.92,263.68,126.64,25.98,195.36-35.76,219.26-78.59,30.62-54.85,81.67-197.19-43.42-296.11-50.82-40.18-100.99-83.01-138.37-135.92-55.97-79.22-55.59-200.32,15.98-265.78,49.05-44.86,124.4-61.26,157.72-118.78,22.4-38.66,19.34-88.5.08-128.82-19.25-40.32-52.79-72.2-89.23-98.06"/>
              <path class="cls-1" d="m403.08,976.8c-5.54-66.77,58.18-124.46,124.73-135.94s130.85,9.44,194.88,24.17c63.28,14.55,133.53,21.15,186.85-13.07,68.1-43.78,87.25-139.88,157.51-184.48,55.97-35.34,126.2-28.77,183.71-5.86,33.04,13.16,62.32,36.66,94.11,54.27,134.78,74.67,145.87,230.37,260.29,254.04,123.07,25.41,191.41-33.03,216.25-75.17,31.47-53.4,80.18-190.54-38.02-288.33-48.73-40.31-97.06-83.96-133.84-136.55-54.32-77.34-54.81-194.13,12.74-259.02,46.74-44.89,119.37-63.19,152.56-119.96,22.78-38.81,21.37-87.94,4.55-128.56-16.98-41-47.95-74.69-82.96-102.45"/>
              <path class="cls-1" d="m405.98,980.04c-3.06-68.63,60.31-129.15,128.79-142.04,65.29-12.29,132.25,8.15,196.29,24.27,62.53,15.75,131,24.55,184.14-6.24,67.82-39.44,90.21-130.56,160.48-174.41,57.02-35.59,126.28-32.9,185.06-13.25,34.36,11.49,65.85,33.58,99.1,51.43,131.76,70.77,144.78,221.07,256.65,244.4,119.5,24.83,187.45-30.3,213.23-71.75,32.31-51.95,78.7-183.98-32.61-280.55-46.66-40.48-93.12-84.92-129.3-137.18-52.67-75.46-54.04-187.98,9.5-252.26,44.43-44.95,114.35-65.11,147.39-121.14,23.15-38.97,23.43-87.42,9.02-128.31-14.7-41.71-43.1-77.19-76.69-106.84"/>
              <path class="cls-1" d="m408.88,983.28c-.57-70.49,62.45-133.81,132.86-148.14,65.63-13.35,133.65,6.83,197.71,24.38s128.47,27.96,181.44.6c67.55-35.1,93.22-121.14,163.44-164.33,58.13-35.76,126.41-37.08,186.4-20.63,35.71,9.79,69.37,30.5,104.08,48.59,128.63,67.04,143.68,211.76,253.02,234.77,115.92,24.25,183.47-27.56,210.21-68.33,33.13-50.5,77.25-177.52-27.2-272.77-44.6-40.67-89.04-85.97-124.77-137.81-50.81-73.72-53.27-181.87,6.25-245.5,42.13-45.04,109.2-67.11,142.23-122.32,23.44-39.18,25.5-86.93,13.49-128.05-12.4-42.46-38.26-79.68-70.42-111.23"/>
              <path class="cls-1" d="m411.78,986.52c1.92-72.36,64.58-138.46,136.92-154.24,65.97-14.39,135.05,5.51,199.12,24.49,61.03,18.08,125.93,31.36,178.74,7.43,67.27-30.76,96.25-111.72,166.41-154.26,59.24-35.92,126.6-41.32,187.75-28.01,37.09,8.07,72.88,27.44,109.07,45.75,125.41,63.46,142.59,202.45,249.38,225.13,112.35,23.68,179.48-24.83,207.2-64.92,33.93-49.06,75.81-171.17-21.8-264.99-42.56-40.91-85.07-86.95-120.23-138.44-49.1-71.88-52.51-175.81,3.01-238.74,39.83-45.15,104.14-69.05,137.06-123.5,23.79-39.35,27.59-86.47,17.96-127.8-10.09-43.24-33.41-82.17-64.15-115.63"/>
              <path class="cls-1" d="m414.68,989.76c4.4-74.22,66.72-143.08,140.99-160.34,66.31-15.41,136.45,4.16,200.53,24.59,60.28,19.22,123.44,34.88,176.04,14.26,67.05-26.29,99.28-102.28,169.38-144.19,60.35-36.08,126.82-45.62,189.1-35.39,38.49,6.32,76.37,24.39,114.05,42.91,122.09,60.01,141.5,193.14,245.75,215.49,108.78,23.1,175.47-22.1,204.18-61.5,34.7-47.62,74.41-164.95-16.39-257.21-40.53-41.18-81.09-87.93-115.7-139.06-47.4-70.04-51.76-169.8-.24-231.98,37.53-45.29,99.09-70.99,131.9-124.67,24.15-39.52,29.72-86.04,22.42-127.54-7.74-44.05-28.57-84.66-57.89-120.02"/>
              <path class="cls-1" d="m417.59,993c6.89-76.08,68.86-147.69,145.06-166.44,66.65-16.4,137.85,2.8,201.95,24.7,59.53,20.34,120.91,38.3,173.33,21.09,66.78-21.92,102.31-92.84,172.35-134.11,61.47-36.23,127.07-49.98,190.44-42.78,39.92,4.54,79.86,21.36,119.04,40.07,118.71,56.7,140.41,183.83,242.12,205.85,105.2,22.52,171.45-19.38,201.16-58.08,35.46-46.19,73.05-158.85-10.99-249.43-38.51-41.5-77.12-88.91-111.16-139.69-45.71-68.19-51.04-163.84-3.48-225.22,35.23-45.48,94.05-72.92,126.73-125.85,24.51-39.69,31.88-85.63,26.89-127.28-5.37-44.88-23.73-87.15-51.62-124.41"/>
              <path class="cls-1" d="m420.49,996.24c9.38-77.95,71-152.27,149.12-172.54,67-17.38,139.25,1.42,203.36,24.81,58.79,21.44,118.37,41.72,170.63,27.92,66.5-17.56,105.36-83.38,175.32-124.04,62.6-36.37,127.33-54.4,191.79-50.16,41.35,2.72,83.32,18.34,124.02,37.23,115.25,53.49,139.32,174.53,238.48,196.21,101.63,21.94,167.42-16.66,198.15-54.66,36.2-44.77,71.76-152.89-5.58-241.65-36.49-41.87-73.15-89.88-106.63-140.32-44.02-66.33-50.34-157.94-6.72-218.47,32.92-45.69,89.01-74.86,121.57-127.03,24.87-39.85,34.07-85.23,31.36-127.03-2.97-45.73-18.88-89.64-45.35-128.8"/>
              <path class="cls-1" d="m423.39,999.48c11.86-79.81,73.15-156.84,153.19-178.64,67.35-18.34,140.66.03,204.77,24.91,58.05,22.53,115.83,45.14,167.93,34.75,66.21-13.21,108.4-73.92,178.29-113.97,63.73-36.51,127.61-58.87,193.13-57.54,42.79.86,86.78,15.34,129.01,34.39,111.74,50.4,138.23,165.22,234.85,186.58,98.06,21.37,163.37-13.95,195.13-51.24,36.93-43.36,70.53-147.07-.17-233.87-34.46-42.3-69.19-90.85-102.09-140.95-42.34-64.47-49.67-152.09-9.97-211.71,30.6-45.95,83.98-76.78,116.41-128.21,25.24-40.02,36.3-84.84,35.83-126.77-.53-46.59-14.04-92.13-39.08-133.19"/>
              <path class="cls-1" d="m426.29,1002.72c14.35-81.67,75.3-161.39,157.26-184.75,67.71-19.29,142.07-1.39,206.19,25.02,57.31,23.6,113.29,48.55,165.23,41.58,65.93-8.85,111.45-64.46,181.26-103.89,64.86-36.64,127.89-63.39,194.48-64.93,44.22-1.02,90.22,12.37,134,31.55,108.18,47.4,137.14,155.91,231.21,176.94,94.49,20.79,159.31-11.25,192.11-47.83,37.63-41.96,69.4-141.4,5.23-226.09-32.42-42.79-65.23-91.82-97.56-141.58-40.67-62.6-49.04-146.31-13.21-204.95,28.26-46.25,78.95-78.71,111.24-129.39,25.61-40.18,38.57-84.46,40.3-126.52,1.95-47.46-9.19-94.62-32.81-137.58"/>
              <path class="cls-1" d="m429.19,1005.96c16.84-83.53,77.45-165.93,161.32-190.85,68.07-20.22,143.49-2.82,207.6,25.12,56.58,24.66,110.75,51.96,162.52,48.41,65.64-4.51,114.51-54.98,184.23-93.82,65.99-36.77,128.16-67.95,195.82-72.31,45.66-2.94,93.65,9.43,138.98,28.71,104.58,44.49,136.05,146.6,227.58,167.3,90.91,20.21,155.23-8.56,189.1-44.41,38.32-40.57,68.38-135.89,10.64-218.31-30.36-43.33-61.28-92.78-93.02-142.21-39-60.73-48.47-140.59-16.46-198.19,25.89-46.59,73.92-80.64,106.08-130.56,25.98-40.34,40.86-84.08,44.76-126.26,4.47-48.32-4.35-97.11-26.54-141.97"/>
              <path class="cls-1" d="m432.09,1009.2c19.32-85.4,79.61-170.45,165.39-196.95,68.43-21.14,144.91-4.26,209.01,25.23,55.86,25.7,108.2,55.37,159.82,55.24,65.35-.17,117.57-45.49,187.19-83.75,67.13-36.89,128.42-72.56,197.17-79.69,47.09-4.88,97.06,6.51,143.97,25.87,100.94,41.66,134.96,137.29,223.94,157.66,87.34,19.63,151.14-5.88,186.08-40.99,38.99-39.19,67.48-130.53,16.04-210.53-28.26-43.95-57.33-93.74-88.49-142.84-37.35-58.85-47.95-134.92-19.7-191.43,23.49-46.98,68.9-82.56,100.91-131.74,26.36-40.5,43.19-83.69,49.23-126.01,7.02-49.18.5-99.6-20.28-146.36"/>
              <path class="cls-1" d="m435,1012.44c21.81-87.26,81.78-174.95,169.46-203.05,68.8-22.05,146.34-5.72,210.43,25.34,55.14,26.73,105.66,58.77,157.12,62.07,65.06,4.17,120.64-36,190.16-73.67,68.28-36.99,128.67-77.2,198.51-87.08,48.51-6.86,100.46,3.63,148.95,23.03,97.27,38.91,133.83,128.16,220.31,148.03,83.73,19.23,147.04-3.21,183.06-37.57,39.65-37.83,66.74-125.31,21.45-202.75-26.1-44.63-53.39-94.7-83.95-143.47-35.7-56.97-47.51-129.3-22.94-184.67,21.03-47.4,63.89-84.48,95.75-132.92,26.74-40.65,45.55-83.3,53.7-125.75,9.61-50.02,5.34-102.09-14.01-150.75"/>
              <path class="cls-1" d="m437.9,1015.68c24.3-89.12,83.95-179.44,173.52-209.15,69.17-22.95,147.79-7.2,211.84,25.44,54.43,27.74,103.11,62.17,154.41,68.9,64.77,8.5,123.71-26.5,193.13-63.6,69.43-37.1,128.9-81.87,199.86-94.46,49.92-8.85,103.84.79,153.94,20.19,93.57,36.24,132.73,118.86,216.68,138.39,80.15,18.65,142.93-.55,180.04-34.15,40.3-36.48,66.16-120.23,26.86-194.97-23.87-45.38-49.46-95.65-79.42-144.1-34.06-55.08-47.14-123.73-26.19-177.91,18.51-47.86,58.88-86.39,90.58-134.1,27.12-40.8,47.93-82.89,58.17-125.49,12.22-50.85,10.18-104.58-7.74-155.14"/>
              <path class="cls-1" d="m440.8,1018.92c26.78-90.98,86.13-183.91,177.59-215.25,69.55-23.84,149.24-8.7,213.25,25.55,53.73,28.74,100.57,65.56,151.71,75.73,64.48,12.82,126.78-17,196.1-53.53,70.58-37.19,129.12-86.57,201.2-101.84,51.31-10.87,107.21-2,158.92,17.35,89.85,33.63,131.64,109.54,213.04,128.75,76.58,18.07,138.8,2.08,177.03-30.74,40.94-35.15,65.78-115.27,32.26-187.19-21.53-46.2-45.53-96.59-74.88-144.72-32.43-53.18-46.86-118.19-29.43-171.15,15.92-48.35,53.87-88.3,85.42-135.28,27.51-40.95,50.33-82.46,62.64-125.24,14.87-51.67,15.03-107.07-1.47-159.53"/>
              <path class="cls-1" d="m443.7,1022.16c29.27-92.85,88.32-188.36,181.65-221.35,69.93-24.72,150.7-10.2,214.67,25.66,53.04,29.73,98.03,68.95,149.01,82.56,64.2,17.14,129.85-7.48,199.07-43.45,71.73-37.28,129.31-91.29,202.55-109.22,52.69-12.9,110.56-4.75,163.91,14.51,86.11,31.08,130.55,100.23,209.41,119.11,73.01,17.48,134.67,4.71,174.01-27.32,41.57-33.84,65.6-110.41,37.67-179.41-19.05-47.08-41.62-97.53-70.35-145.35-30.81-51.28-46.68-112.68-32.68-164.39,13.23-48.86,48.87-90.21,80.26-136.45,27.9-41.1,52.74-82.02,67.11-124.98,17.54-52.46,19.87-109.56,4.8-163.92"/>
              <path class="cls-1" d="m446.6,1025.4c31.76-94.71,90.51-192.81,185.72-227.45,70.32-25.59,152.18-11.73,216.08,25.76,52.35,30.71,95.5,72.33,146.31,89.39,63.92,21.46,132.93,2.04,202.04-33.38,72.89-37.36,129.49-96.03,203.89-116.61,54.06-14.96,113.89-7.42,168.89,11.67,82.36,28.59,129.47,90.91,205.77,109.47,69.44,16.89,130.53,7.31,170.99-23.9,42.19-32.54,65.64-105.6,43.08-171.63-16.41-48.01-37.71-98.47-65.81-145.98-29.2-49.38-46.59-107.17-35.92-157.63,10.44-49.39,43.87-92.12,75.09-137.63,28.3-41.24,55.17-81.56,71.57-124.73,20.22-53.23,24.72-112.05,11.07-168.31"/>
              <path class="cls-1" d="m449.5,1028.64c34.24-96.57,92.71-197.24,189.79-233.55,70.71-26.45,153.66-13.26,217.49,25.87,51.68,31.68,93,75.62,143.6,96.22,63.69,25.65,136.01,11.56,205.01-23.31,74.06-37.43,129.65-100.77,205.24-123.99,55.42-17.02,117.2-10.03,173.88,8.83,78.6,26.16,128.41,81.44,202.14,99.84,65.9,16.17,126.38,9.9,167.98-20.48,42.8-31.26,65.92-100.8,48.48-163.85-13.54-48.97-33.82-99.4-61.28-146.61-27.6-47.46-46.6-101.64-39.16-150.87,7.54-49.9,38.87-94.02,69.93-138.81,28.7-41.39,57.61-81.08,76.04-124.47,22.93-53.98,29.56-114.54,17.33-172.7"/>
              <path class="cls-1" d="m452.41,1031.88c36.73-98.44,94.92-201.66,193.85-239.66,71.1-27.31,155.16-14.81,218.91,25.98,51.01,32.65,90.47,79.02,140.9,103.05,63.42,29.99,139.1,21.09,207.97-13.23,75.22-37.49,129.79-105.54,206.59-131.37,56.76-19.1,120.49-12.55,178.87,5.99,74.83,23.78,127.32,72.14,198.51,90.2,62.33,15.59,122.22,12.47,164.96-17.07,43.41-30,66.44-95.95,53.89-156.07-10.42-49.92-29.94-100.31-56.74-147.24-26.02-45.55-46.7-96.08-42.41-144.11,4.51-50.38,33.88-95.92,64.76-139.99,29.1-41.52,60.06-80.58,80.51-124.21,25.64-54.71,34.4-117.03,23.6-177.09"/>
              <path class="cls-1" d="m455.31,1035.12c39.22-100.3,97.13-206.07,197.92-245.76,71.5-28.16,156.68-16.38,220.32,26.08,50.36,33.6,87.94,82.43,138.2,109.88,63.14,34.33,142.25,30.76,210.94-3.16,76.47-37.39,129.91-110.31,207.93-138.76,58.09-21.18,123.76-14.98,183.85,3.15,71.08,21.44,126.23,62.83,194.87,80.56,58.75,15.02,118.06,15.02,161.94-13.65,44.01-28.75,67.18-91,59.29-148.29-7-50.84-26.07-101.23-52.21-147.87-24.44-43.62-46.9-90.46-45.65-137.35,1.35-50.82,28.97-97.77,59.6-141.17,29.59-41.6,62.51-80.07,84.98-123.96,28.37-55.41,39.25-119.52,29.87-181.48"/>
              <path class="cls-1" d="m458.21,1038.36c41.7-102.16,99.41-210.32,201.99-251.86,71.95-28.9,158.21-17.95,221.73,26.19,49.72,34.55,85.41,85.83,135.5,116.71,62.87,38.67,145.3,40.24,213.91,6.92,77.6-37.51,130.02-115.08,209.28-146.14,59.41-23.28,127.01-17.29,188.84.31,67.33,19.16,125.14,53.52,191.24,70.92,55.18,14.44,113.89,17.55,158.93-10.23,44.62-27.52,68.14-85.85,64.7-140.51-3.25-51.66-22.23-102.13-47.67-148.5-22.88-41.69-47.17-84.76-48.9-130.6-1.93-51.19,23.95-99.69,54.43-142.34,29.97-41.76,64.96-79.54,89.45-123.7,31.1-56.1,44.09-122.01,36.14-185.87"/>
              <path class="cls-1" d="m461.11,1041.6c44.19-104.02,101.58-214.84,206.05-257.96,72.31-29.84,159.75-19.54,223.15,26.29,49.09,35.49,82.87,89.24,132.79,123.54,62.59,43.01,148.36,49.72,216.88,16.99,78.74-37.62,130.11-119.87,210.62-153.52,60.71-25.38,130.23-19.45,193.82-2.53,63.59,16.92,124.05,44.21,187.6,61.28,51.61,13.86,109.72,20.06,155.91-6.81,45.22-26.31,69.27-80.42,70.11-132.73.84-52.31-18.41-103.02-43.14-149.13-21.32-39.76-47.5-78.96-52.14-123.84-5.32-51.47,18.93-101.61,49.27-143.52,30.35-41.91,67.42-79,93.91-123.45,33.84-56.77,48.94-124.5,42.41-190.26"/>
            </g>
            <g class="cls-5">
              <path class="cls-1" d="m1217.91,1429.05c-55.62-34.4-58.23-118.7-25.6-175.39,32.62-56.68,89.45-94.17,139.96-135.72,50.51-41.55,99.08-94.93,103.24-160.2,5.33-83.44-63.66-159.19-54.82-242.34,6.89-64.8,59.82-113.83,115.44-141.19,31.45-15.47,67.8-20.9,100.35-33.68,147.63-57.97,278.88,35.62,370.86-40.51,99.6-82.43,94.52-174.68,76.12-220.13-23.57-58.23-102.53-187.19-258-151.66-63.16,14.43-127.97,26.71-192.63,22.7-96.81-6-190.96-82.17-197.14-178.97-4.23-66.34,30.18-135.34,6.23-197.35-16.1-41.68-56.87-70.52-100.35-80.77-43.49-10.25-89.35-4.09-132.33,8.11"/>
              <path class="cls-1" d="m1222.26,1428.82c-55.52-37.51-60.56-123.32-27.81-182.38,31.96-57.65,89.33-96.07,140.93-136.75s100.14-90.83,106.87-153.82c8.54-80.51-54.36-155.64-45.11-238.34,7.52-65.76,56.64-116.39,110.53-146.86,30.96-17.51,67.61-25.6,101.26-39.35,142.64-58.27,270.94,30.64,361.07-43.72,96.91-80.01,94.17-169.88,76.89-215.64-21.9-57.99-98.28-181.87-248.55-151-61.95,12.72-126.25,23.04-190.28,18.77-94.31-6.11-185.65-78.9-193.91-172.21-5.71-64.56,25.54-132.63,2.07-194.06-15.98-42.07-55.15-71.76-97.35-84.09s-88.26-9.43-131.83.47"/>
              <path class="cls-1" d="m1226.6,1428.59c-55.41-40.61-62.87-127.92-30.02-189.37,31.32-58.59,89.2-97.97,141.9-137.79,51.45-38.87,101.21-86.72,110.51-147.43,11.75-77.58-45.24-152.1-35.4-234.34,7.99-66.74,53.47-119.04,105.61-152.54,30.48-19.58,67.43-30.29,102.17-45.02,137.71-58.36,263.01,25.65,351.29-46.92,94.22-77.58,93.82-165.08,77.66-211.15-20.25-57.73-94.09-176.61-239.1-150.34-60.78,11.01-124.53,19.38-187.93,14.84-91.81-6.22-180.37-75.65-190.67-165.44-7.2-62.79,20.89-129.92-2.08-190.77-15.87-42.46-53.46-73.03-94.36-87.41-41.72-14.68-87.16-14.76-131.32-7.16"/>
              <path class="cls-1" d="m1230.94,1428.36c-55.3-43.72-65.17-132.5-32.23-196.36,30.71-59.52,89.06-99.89,142.86-138.82,51.89-37.55,102.28-82.61,114.14-141.05,14.96-74.64-36.02-148.55-25.69-230.35,8.55-67.71,50.29-121.76,100.7-158.21,30.01-21.7,67.24-34.96,103.08-50.68,132.84-58.26,255.07,20.67,341.5-50.13,91.53-75.16,93.46-160.27,78.44-206.66-18.61-57.46-89.97-171.42-229.64-149.68-59.64,9.28-122.79,15.54-185.58,10.91-89.3-6.59-175.13-72.42-187.43-158.68-8.71-61.05,16.11-127.15-6.23-187.49-15.85-42.82-51.78-74.34-91.36-90.74s-86.07-20.1-130.82-14.8"/>
              <path class="cls-1" d="m1235.28,1428.12c-55.2-46.82-67.46-137.08-34.44-203.35,30.11-60.43,88.9-101.81,143.83-139.86,52.33-36.24,103.34-78.51,117.77-134.66,18.17-71.71-26.78-145.01-15.98-226.35,9.12-68.68,47.1-124.56,95.79-163.89,29.53-23.85,67.05-39.61,103.99-56.35,128.03-57.99,247.13,15.69,331.71-53.33,88.84-72.74,93.09-155.45,79.21-202.16-16.98-57.18-85.92-166.33-220.19-149.02-58.55,7.55-121.07,11.83-183.22,6.98-86.79-6.76-169.93-69.22-184.2-151.92-10.24-59.33,11.43-124.43-10.39-184.2-15.76-43.2-50.11-75.68-88.36-94.06s-84.98-25.43-130.31-22.44"/>
              <path class="cls-1" d="m1239.63,1427.89c-55.09-49.93-69.72-141.64-36.64-210.34,29.53-61.34,88.73-103.74,144.8-140.89,52.74-34.94,104.52-74.36,121.4-128.28,21.52-68.73-17.52-141.46-6.27-222.35,9.69-69.64,43.89-127.43,90.88-169.56,29.04-26.04,66.86-44.25,104.9-62.01,123.27-57.56,239.19,10.71,321.92-56.54,86.15-70.31,92.7-150.61,79.99-197.67-15.37-56.88-81.95-161.33-210.74-148.36-57.49,5.79-119.34,8.11-180.87,3.05-84.29-6.93-164.77-66.03-180.96-145.15-11.79-57.63,6.75-121.71-14.54-180.91-15.67-43.58-48.44-77.07-85.36-97.38-39.19-21.56-83.88-30.77-129.81-30.07"/>
              <path class="cls-1" d="m1243.97,1427.66c-54.98-53.04-71.97-146.2-38.85-217.34,28.97-62.23,88.54-105.69,145.77-141.93,53.15-33.66,105.6-70.25,125.03-121.89,24.75-65.78-8.26-137.91,3.45-218.36,10.27-70.61,40.65-130.35,85.97-175.23,28.54-28.27,66.68-48.86,105.81-67.68,118.56-57,231.25,5.73,312.13-59.75,83.46-67.89,92.31-145.77,80.76-193.18-13.78-56.58-78.04-156.46-201.29-147.7-56.47,4.01-117.61,4.41-178.52-.88-81.78-7.09-159.68-62.87-177.73-138.39-13.37-55.95,2.08-118.99-18.69-177.63-15.58-43.97-46.77-78.49-82.36-100.7-38.35-23.93-82.79-36.1-129.3-37.71"/>
              <path class="cls-1" d="m1248.31,1427.43c-54.88-56.14-74.21-150.74-41.06-224.33,28.43-63.11,88.35-107.65,146.74-142.96,53.54-32.39,106.68-66.12,128.66-115.5,27.97-62.83,1.01-134.36,13.16-214.36,10.87-71.58,37.38-133.33,81.06-180.91,28.02-30.53,66.5-53.45,106.72-73.34,113.9-56.32,223.31.75,302.34-62.95,80.78-65.47,91.9-140.93,81.53-188.69-12.21-56.26-75.89-167.4-191.84-147.04-54.7,9.6-115.89.71-176.17-4.8-79.28-7.25-154.64-59.71-174.49-131.63-14.99-54.29-2.58-116.27-22.85-174.34-15.48-44.35-45.08-79.95-79.36-104.03-37.5-26.34-81.69-41.44-128.8-45.34"/>
              <path class="cls-1" d="m1252.66,1427.2c-54.77-59.25-76.42-155.27-43.27-231.32,27.9-63.99,88.14-109.62,147.71-144,53.93-31.13,107.75-62,132.29-109.12,31.19-59.88,10.3-130.8,22.87-210.36,11.46-72.54,34.06-136.34,76.15-186.58,27.48-32.81,66.33-58.02,107.63-79.01,109.29-55.52,215.38-4.23,292.55-66.16,78.09-63.04,91.48-136.07,82.31-184.19-10.66-55.94-71.85-164.11-182.39-146.38-53.87,8.64-114.16-2.99-173.82-8.73-76.78-7.39-149.66-56.57-171.25-124.86-16.64-52.64-7.24-113.56-27-171.05-15.38-44.74-43.39-81.45-76.36-107.35-36.64-28.78-80.6-46.78-128.29-52.98"/>
              <path class="cls-1" d="m1257,1426.96c-54.67-62.35-78.62-159.8-45.47-238.31,27.38-64.86,87.93-111.6,148.67-145.03,54.3-29.88,108.82-57.88,135.92-102.73,34.4-56.93,19.59-127.25,32.58-206.36,12.07-73.51,30.71-139.39,71.23-192.26,26.91-35.11,66.16-62.57,108.54-84.67,104.72-54.63,207.44-9.21,282.76-69.36,75.4-60.62,91.04-131.21,83.08-179.7-9.13-55.61-67.74-160.67-172.94-145.72-53.15,7.55-112.44-6.68-171.47-12.66-74.27-7.52-144.76-53.44-168.02-118.1-18.34-51-11.89-110.85-31.15-167.76-15.27-45.13-41.67-82.98-73.36-110.67-35.77-31.25-79.51-52.11-127.79-60.62"/>
              <path class="cls-1" d="m1261.34,1426.73c-54.56-65.46-80.8-164.32-47.68-245.3,26.88-65.72,87.7-113.6,149.64-146.07,54.67-28.65,109.88-53.76,139.55-96.35,37.61-53.98,28.89-123.7,42.29-202.37,12.69-74.47,27.33-142.46,66.32-197.93,26.31-37.43,66.01-67.08,109.45-90.34,100.2-53.64,199.5-14.2,272.98-72.57,72.71-58.2,90.58-126.35,83.85-175.21-7.61-55.28-63.57-157.05-163.49-145.06-52.53,6.3-110.71-10.37-169.12-16.59-71.77-7.65-139.94-50.3-164.78-111.34-20.09-49.37-16.54-108.13-35.31-164.48-15.16-45.52-39.93-84.53-70.37-113.99-34.86-33.76-78.41-57.45-127.28-68.25"/>
              <path class="cls-1" d="m1265.68,1426.5c-54.45-68.56-82.97-168.84-49.89-252.3,26.39-66.58,87.47-115.62,150.61-147.1,55.03-27.44,110.94-49.65,143.18-89.96,40.81-51.04,38.2-120.14,52-198.37,13.31-75.43,23.9-145.55,61.41-203.6,25.69-39.76,65.88-71.57,110.36-96,95.71-52.57,191.56-19.18,263.19-75.77,70.02-55.77,90.11-121.48,84.63-170.71-6.12-54.95-59.46-134.37-154.04-144.4-51.96-5.51-108.98-14.04-166.77-20.52-69.27-7.76-135.2-47.15-161.55-104.57-21.9-47.74-21.18-105.43-39.46-161.19-15.05-45.91-38.17-86.1-67.37-117.32-33.93-36.28-77.32-62.78-126.78-75.89"/>
              <path class="cls-1" d="m1270.03,1426.27c-54.35-71.67-85.12-173.35-52.1-259.29,25.92-67.44,87.22-117.65,151.58-148.14,55.38-26.23,112-45.53,146.81-83.58,44.01-48.09,47.52-116.58,61.71-194.37,13.94-76.39,20.44-148.65,56.5-209.28,25.05-42.1,65.76-76.02,111.27-101.67,91.27-51.43,183.73-24.01,253.4-78.98s89.62-116.62,85.4-166.22c-4.64-54.61-55.86-130.52-144.59-143.74-51.14-7.62-107.26-17.71-164.42-24.45-66.77-7.87-130.55-43.98-158.31-97.81-23.77-46.09-25.82-102.72-43.61-157.9-14.93-46.31-36.39-87.69-64.37-120.64-32.97-38.83-76.22-68.12-126.27-83.53"/>
              <path class="cls-1" d="m1274.37,1426.03c-54.24-74.77-87.26-177.85-54.31-266.28,25.45-68.29,86.97-119.7,152.55-149.17,55.72-25.04,113.06-41.42,150.44-77.19,47.2-45.16,56.84-113.02,71.43-190.38s16.94-151.76,51.59-214.95c24.37-44.45,65.67-80.44,112.18-107.33,86.86-50.23,175.8-28.99,243.61-82.18,64.75-50.79,89.11-111.75,86.18-161.73-3.19-54.27-52.26-126.89-135.14-143.08-50.33-9.83-105.54-21.38-162.07-28.38-64.27-7.96-125.97-40.77-155.07-91.05-25.71-44.41-30.45-100.01-47.77-154.62-14.81-46.7-34.58-89.28-61.37-123.96-31.98-41.39-75.13-73.45-125.77-91.16"/>
              <path class="cls-1" d="m1278.71,1425.8c-54.14-77.88-89.38-182.35-56.51-273.27,24.99-69.14,86.72-121.77,153.52-150.21,56.06-23.87,114.11-37.32,154.07-70.8,50.39-42.22,66.18-109.46,81.14-186.38s13.41-154.87,46.68-220.63c23.67-46.8,65.6-84.82,113.09-113,82.5-48.96,167.86-33.98,233.82-85.39,62.06-48.37,88.58-106.88,86.95-157.24-1.75-53.93-48.64-123.49-125.69-142.42-49.5-12.16-103.81-25.03-159.71-32.31-61.77-8.04-121.48-37.52-151.84-84.28-27.72-42.7-35.08-97.31-51.92-151.33-14.69-47.1-32.74-90.89-58.37-127.28-30.96-43.96-74.04-78.79-125.26-98.8"/>
              <path class="cls-1" d="m1283.06,1425.57c-54.03-80.98-91.48-186.85-58.72-280.26,24.55-69.99,86.46-123.85,154.48-151.24,56.4-22.71,115.16-33.21,157.7-64.42,53.58-39.3,75.52-105.9,90.85-182.38,15.89-79.27,9.86-157.98,41.76-226.3,22.96-49.16,65.57-89.14,114-118.66,78.17-47.64,159.91-38.96,224.03-88.59,59.37-45.95,88.04-102.02,87.72-152.74-.33-53.6-44.96-120.3-116.24-141.76-48.63-14.64-102.09-28.67-157.36-36.23-59.27-8.11-117.07-34.21-148.6-77.52-29.8-40.93-39.7-94.61-56.08-148.04-14.55-47.5-30.88-92.49-55.37-130.6-29.9-46.53-72.94-84.13-124.76-106.43"/>
              <path class="cls-1" d="m1287.4,1425.34c-53.92-84.09-93.57-191.34-60.93-287.25,24.11-70.84,86.2-125.96,155.45-152.28,56.74-21.56,116.21-29.12,161.33-58.03,56.77-36.38,84.87-102.34,100.56-178.38,16.55-80.22,6.28-161.09,36.85-231.97,22.21-51.51,65.56-93.42,114.91-124.33,73.88-46.28,151.97-43.95,214.24-91.8,56.67-43.54,87.47-97.15,88.5-148.25,1.07-53.27-41.18-117.32-106.79-141.1-47.7-17.29-100.37-32.3-155.01-40.16-56.78-8.17-112.72-30.83-145.37-70.76s-44.32-91.9-60.23-144.75c-14.42-47.9-29-94.1-52.37-133.93-28.82-49.11-71.85-89.46-124.25-114.07"/>
              <path class="cls-1" d="m1291.74,1425.11c-53.82-87.19-95.65-195.83-63.14-294.25,23.68-71.68,85.93-128.08,156.42-153.31,57.07-20.43,117.21-25.11,164.96-51.65,59.89-33.57,94.22-98.77,110.27-174.39,17.23-81.17,2.68-164.19,31.94-237.65,21.45-53.86,65.61-97.63,115.82-129.99,69.63-44.87,143.93-49.06,204.45-95.01,53.89-41.23,86.89-92.3,89.27-143.76,2.45-52.94-37.27-114.53-97.34-140.44-46.65-20.12-98.66-35.91-152.66-44.09-54.29-8.22-108.42-27.36-142.13-64-34.17-37.13-48.93-89.2-64.38-141.47-14.28-48.3-27.1-95.7-49.38-137.25-27.71-51.69-70.75-94.8-123.75-121.71"/>
              <path class="cls-1" d="m1296.09,1424.87c-53.71-90.3-97.71-200.32-65.35-301.24,23.26-72.53,85.66-130.22,157.39-154.35,57.41-19.31,118.27-21.01,168.59-45.26,63.1-30.64,103.58-95.2,119.98-170.39,17.91-82.12-.95-167.28,27.03-243.32,20.68-56.21,65.7-101.78,116.73-135.66,65.41-43.43,135.99-54.05,194.67-98.21,51.2-38.81,86.29-87.45,90.05-139.27,3.82-52.63-33.17-111.9-87.88-139.78-45.44-23.16-96.94-39.51-150.31-48.02-51.8-8.26-104.15-23.79-138.89-57.23-36.45-35.08-53.54-86.5-68.54-138.18-14.13-48.7-25.18-97.3-46.38-140.57-26.57-54.26-69.66-100.13-123.24-129.34"/>
              <path class="cls-1" d="m1300.43,1424.64c-53.61-93.4-99.76-204.81-67.55-308.23,22.85-73.37,85.39-132.38,158.36-155.38,57.74-18.2,119.34-16.9,172.22-38.88,66.31-27.71,113.1-91.6,129.69-166.39,18.76-83.02-4.59-170.36,22.12-249,19.88-58.55,65.86-105.85,117.64-141.32,61.24-41.96,128.05-59.03,184.88-101.42,48.51-36.38,85.67-82.61,90.82-134.77,5.17-52.32-28.84-109.37-78.43-139.12-44.01-26.4-95.23-43.09-147.96-51.95-49.31-8.28-99.89-20.12-135.66-50.47-38.77-32.89-58.05-83.83-72.69-134.89-13.89-49.13-23.25-98.89-43.38-143.89-25.42-56.83-68.57-105.47-122.74-136.98"/>
              <path class="cls-1" d="m1304.77,1424.41c-53.5-96.51-101.65-209.24-69.76-315.22,22.55-74.18,85.12-134.56,159.33-156.42,58.07-17.11,120.41-12.79,175.85-32.49,69.52-24.77,122.4-88.04,139.4-162.4,19.39-83.98-8.24-173.44,17.21-254.67,19.08-60.89,66.1-109.82,118.55-146.99,57.11-40.47,120.12-64.01,175.09-104.62,45.82-33.96,85.03-77.78,91.59-130.28,6.5-52.02-24.22-106.89-68.98-138.46-42.3-29.83-93.53-46.66-145.61-55.88-46.83-8.29-95.61-16.33-132.42-43.71-41.11-30.57-62.7-81.12-76.84-131.61-13.77-49.52-21.3-100.47-40.38-147.22-24.24-59.39-67.47-110.81-122.23-144.62"/>
              <path class="cls-1" d="m1309.11,1424.18c-53.39-99.61-103.82-213.77-71.97-322.21,22.04-75.06,84.86-136.76,160.29-157.45,58.41-16.03,121.47-8.69,179.48-26.11,72.73-21.84,131.7-84.48,149.12-158.4,20.01-84.94-11.92-176.5,12.29-260.35,18.26-63.22,66.43-113.69,119.46-152.66s112.18-68.99,165.3-107.83c43.14-31.54,84.37-72.95,92.37-125.79,7.83-51.73-19.29-104.37-59.53-137.8-40.25-33.43-91.83-50.19-143.26-59.81-44.35-8.29-91.3-12.44-129.19-36.94-43.45-28.1-67.34-78.41-81-128.32-13.66-49.91-19.34-102.04-37.38-150.54-23.04-61.94-66.38-116.14-121.73-152.25"/>
            </g>
          </g>
        </g>
      </g>
    </g>
  </g>
</svg>